/* XPM */
static char *_e8eb2010d3e45b4c895c369dc5d60d2XCUaksXEAf7RUGOe[] = {
/* columns rows colors chars-per-pixel */
"64 64 203 2 ",
"   c #3E1A27",
".  c #3C1C33",
"X  c #3B2239",
"o  c #382837",
"O  c #3E303F",
"+  c #471D1C",
"@  c #761E05",
"#  c #4F201F",
"$  c #5F211C",
"%  c #572012",
"&  c #73260B",
"*  c #682413",
"=  c #6F2218",
"-  c #6A2B1B",
";  c #792D16",
":  c #6A3119",
">  c #482127",
",  c #512629",
"<  c #5A2925",
"1  c #52352E",
"2  c #532D34",
"3  c #662E2C",
"4  c #632824",
"5  c #763A22",
"6  c #6E3331",
"7  c #6A3936",
"8  c #723730",
"9  c #7A451C",
"0  c #7F4F2F",
"q  c #794727",
"w  c #6F4C3F",
"e  c #744835",
"r  c #754F38",
"t  c #7A4B37",
"y  c #71533F",
"u  c #7B543D",
"i  c #453748",
"p  c #3F4149",
"a  c #3D545E",
"s  c #4C4C4C",
"d  c #444455",
"f  c #545454",
"g  c #5B5B5B",
"h  c #545856",
"j  c #57414B",
"k  c #784E41",
"l  c #69584A",
"z  c #7D5844",
"x  c #785A4C",
"c  c #6B5B52",
"v  c #635C59",
"b  c #664B4A",
"n  c #6B625F",
"m  c #77675C",
"M  c #526472",
"N  c #55707D",
"B  c #5F6C62",
"V  c #636363",
"C  c #6A6664",
"Z  c #6D6D6D",
"A  c #6C6866",
"S  c #756A65",
"D  c #77746A",
"F  c #747474",
"G  c #7C7C7C",
"H  c #7A7877",
"J  c #514E61",
"K  c #812F0F",
"L  c #90390F",
"P  c #892F11",
"I  c #863515",
"U  c #9B3E17",
"Y  c #863D27",
"T  c #95420F",
"R  c #8B431F",
"E  c #8C561D",
"W  c #98591F",
"Q  c #A44C1A",
"!  c #AD4F1E",
"~  c #A44413",
"^  c #AF5719",
"/  c #A45315",
"(  c #BC5C13",
")  c #BA621B",
"_  c #BF6C1E",
"`  c #814127",
"'  c #854C26",
"]  c #8F5125",
"[  c #96532C",
"{  c #834830",
"}  c #864E39",
"|  c #8C5C30",
" . c #83533C",
".. c #975B35",
"X. c #944A2B",
"o. c #B25932",
"O. c #956329",
"+. c #9C6535",
"@. c #B76F27",
"#. c #BE6923",
"$. c #B1652A",
"%. c #A06034",
"&. c #A96A36",
"*. c #B16131",
"=. c #BD6631",
"-. c #AD7436",
";. c #B97339",
":. c #A66426",
">. c #C96718",
",. c #C5731A",
"<. c #D1761A",
"1. c #CB6C2D",
"2. c #C17B21",
"3. c #CD7C23",
"4. c #D37521",
"5. c #C16F34",
"6. c #C77837",
"7. c #CD7E38",
"8. c #C37632",
"9. c #D57332",
"0. c #814F45",
"q. c #815A47",
"w. c #895F4B",
"e. c #845846",
"r. c #835A51",
"t. c #876448",
"y. c #966445",
"u. c #876A59",
"i. c #946D58",
"p. c #967359",
"a. c #8A7850",
"s. c #A36C44",
"d. c #B76840",
"f. c #BE7E45",
"g. c #AC7A57",
"h. c #846C62",
"j. c #8B7669",
"k. c #937866",
"l. c #8A766F",
"z. c #C16C42",
"x. c #CA841F",
"c. c #D08926",
"v. c #DD8429",
"b. c #DE8A2A",
"n. c #D38423",
"m. c #C9863F",
"M. c #D68432",
"N. c #D38F38",
"B. c #D89334",
"V. c #DD9936",
"C. c #D19A36",
"Z. c #E49732",
"A. c #E0903F",
"S. c #DDA33E",
"D. c #BA8949",
"F. c #B2835A",
"G. c #B38A5C",
"H. c #8E837A",
"J. c #93847A",
"K. c #9B867B",
"L. c #928768",
"P. c #A7886B",
"I. c #A48679",
"U. c #B99976",
"Y. c #BB9367",
"T. c #C28648",
"R. c #D98A42",
"E. c #D69745",
"W. c #D99D49",
"Q. c #C58F4B",
"!. c #E39848",
"~. c #D9A753",
"^. c #EBA548",
"/. c #EEB14B",
"(. c #C89863",
"). c #D0A677",
"_. c #5C7A87",
"`. c #66909C",
"'. c #6C848D",
"]. c #6C9FAA",
"[. c #7CB0B8",
"{. c #848484",
"}. c #8B8B8B",
"|. c #8A8583",
" X c #958E89",
".X c #99928B",
"XX c #939393",
"oX c #9A9A9A",
"OX c #9A9793",
"+X c #A8988A",
"@X c #A29C97",
"#X c #A7A098",
"$X c #BAA89B",
"%X c #8B9EA2",
"&X c #A1A1A1",
"*X c #ABABAB",
"=X c #ACA5A2",
"-X c #B6B6A9",
";X c gray72",
":X c #B9B5B3",
">X c #85B2C0",
",X c #98CDD7",
"<X c #99E5F0",
/* pixels */
"h s s f G &X*X&XoX}.Z s g {.oXoXoXXXXXXXXXXXXX}.V s s Z XX*X*XoX{.{.}.XXXXXXXXG C g f h Z }.oXXXXXXX}.F f s f V Z Z C g g g g g ",
"s s s s C }.&XoXXX}.Z s f F XXXXXXXXXXXXXXXX}.F h g F XX*X;X*X*X&XoX&X&X&XoXoXXX{.F V f V G XXXXXX{.Z g f C F Z V h s s s s s s ",
"C g s s h G XXXX}.G V s f C G {.{.}.}.}.{.G Z g h F &X;X;X*X*X*X*X*X*X*X&X&XoXoXoX}.F V h C G {.F V h g F XXoX{.g s s s s g V C ",
"}.F g s f F XXXX{.C f h C C V C Z F F F Z V f s V }.*X;X*X*X&X&XoXoXoXoX&X&X&X&XXXXX}.F V g V C f s g {.*X;X*X}.g s f V F }.XXXX",
"XX}.Z s f Z }.XXG h h G }.{.C s s s s s s f f s h G &X*X&XoXoXoXoXoXoXoXoX&X&X&XoXXXXX}.G V s s s C XX*X*X*XoX{.g s C XX*X*X*XoX",
"XXXX{.C f C {.XXG g g G XX}.Z s f h g V Z G G C h Z XX&XoXoXoXoXoXoXoXoXoXoXoXoXXXXXXXXX}.C s f F XX*X*X*X&XXXG f f G *X;X*X*XoX",
"}.XX}.G f V {.XXG V h C Z Z g s Z G }.XXXXoXXX{.V V F XXXXXXXXXXoXXXXXoXXXXXXXXXXXXXXXXX{.g f Z oX*X*X*X&XoXXXG f g }.;X;X*XoXoX",
"}.XXXXG f V G XXG g s s s s s s F oX;X*X&XoXoXXXF g V G }.XXXXXXXX}.{.{.{.}.}.}.}.}.}.{.Z s g }.*X*X&XoX&X&XoXG f g }.*X*X&XoXoX",
"XXXX}.G f V G }.C s s h Z Z C g V }.*X&XoXXXXXXX{.C f V F G G G G Z C g g C Z C g g V g s s Z oX*X&XoXoXoX&XXXG f V {.*X&XoXoXXX",
"XXXXXXG s g Z Z f s g {.&X&XXXZ h Z G {.{.{.}.}.{.Z f s h h h h f s s s s f f s s s s s s s C }.oXoXoXoXoXoXXXG f g G &XoXXXXXXX",
"G G F C s f g f s f F *X;X;X*X{.V h g V V C Z F Z g s s s f h g g V V C C C C C C g f s s s h Z G {.{.}.XXXXXXG f h F XXXX}.}.}.",
"g h f s s s s s s C XX;X;X;X*XXXF V f s s s f s s s s g Z F {.XXXXXXXXXXXXXXXXoXXX{.Z f s f g V V V C Z F G G Z s f C G G F F Z ",
"s h V V h s s s h {.*X;X*X*X*X&XXX{.G G G F C f s s g G &X*X*X*X*X*X*X*X*X&X&X*X&XoX{.C h F }.}.Z g s s s g V f s s f h f s s s ",
"C {.oXXXF V s s h {.&X*X&X&X&XoXoXXXXXXXXX}.G V s s C XX;X;X;X*X*X*X*X&X&X&X&X*X*XoXXXG V G oXoX{.V s s h G }.G F Z Z C V h f s ",
"G &X;X*XXXF V s f Z XX&XoXoXoXoXoXXXXXXXoXXX{.C s s Z &X;X;X*X&X&XoXoXoX&XoXoX&X&XoXXX{.V Z }.XXG g f h V XX*X*XoXXX}.{.G G Z g ",
"G oX*X&XoX}.F V s h F XXXXXXXXoXoXXXXXXXXXXX{.C s s Z XX*X&X&XoXXXXXoXoXoXXXoX&XoXXXXX{.C V F G g f V C V }.*X*X*X&X&XoXoXXX{.C ",
"Z {.oXoXXXXX{.F h f V G }.}.}.}.}.}.}.}.}.XX{.C s s V G XX#X#X#XOX}.}.}.}.}.}.}.{.}. X}.Z h V Z s Z {.F V {.&X&XoXoXoXXXXXXXG C ",
"h C F {.}.{.F V s s f V C C V V V C Z Z C  XP.j.l.H.J.J.P.g.).(.F.j.+X+X.XJ.H.D n C A C g s f g s Z {.Z g F XXXXXXXXXXXXXX}.F g ",
"s s g C Z C h s s s s s s s s s s s f g H.(.y.e.q.u.u.s.&._ 3.5.R e.k.k.k.k.k.i.(.D.y.c s s s s s V C V s V F G G G F F F Z V s ",
"g f s s s s s h h s s h V V V C V g g j.(.%.{ e.q.t.y.-.m.7.5.R - 0.q.q.z t.| T.^.M.6.%.c s s s h g g h s f h g g g h h g h f s ",
"{.F g s s g F {.G V h Z oX*X&XoXXXXX.XQ.m.] e e e t 0 ' [ [ ` - 7 k q.q.w.| -.B.R.=.L R w.V f V {.XX}.G g f f s s V F {.{.}.G F ",
"XX}.F g f F oX&XXXZ g F *X;X;X*X*X&X#Xk.' %         + + + + > > , 2 2 1 7 { m.N.7.X.- * K r.g F *X*X&X}.g V Z Z h G &X*X*X&XXX{.",
"XXXX{.Z g }.*X*XXXZ g F *X;X;X*X*X&X&X@XS >   . X X X o o X . .     o p o + : ] %.` 7 6 - Y m F *X;X&X{.g F XX}.C {.*X;X;X*XXX}.",
"XXXX{.F V }.*X&XXXZ h Z &X*X*XoXoXXXXXoX.Xc > . o i M N a i O O O d N ].a h i > < 4 6 7 3 ; e.F &X*XXXG g G oXXXC F oX*X*X&XXXXX",
"}.XX{.Z V {.oXXX}.Z g C {.XXoXoXoXXXXXXX}.H b > X d ,X<X`.d J '.M ].[._.>X<X].p O , 4 7 6 = Y h.XXoX}.F f G oXXXC C {.*X&XoXXXXX",
"XXXXG V f Z G F Z h s f V Z {.oXoXXXXXXXXXF C b . o `.[.M j y -XL.D B d %X,X`._.'.i , 3 6 - ; k.XXXX{.Z s F XXXXZ g F XXoXXXXXXX",
"{.F V f s g C V V f s f f h Z XXXXXXXXXXXX{.n v b + 1 l t.F.D.Q.~.-.' | a.L.h %X%Xd 2 , 6 3 * y.OXXX{.C s Z {.G C f g G {.}.}.XX",
"C h s g C C C Z F F Z Z V h V G G G {.{.}.G V D g.9 +.E.N.C./.c.B.v.A._ V.S.O.w j i 2 , < 3 * ..XXXXG V s g Z C h s s g C Z G {.",
"s h G &X*X*X&X&X&X&XoXXXG V f h s s f g g v a.D.M.b.^.v.<.2.2.M.!.<.3.V.4.,.2.] 5 2 , # > = U &.l.G Z f s s f s f g V g f s s f ",
"s F &X;X;X*X*X&X&X&XoXXX{.V s s s s f g S U.E.3.<.b.x.V.b.Z.Z.,._ 3.x.B.>.4.3.3.!.[ 5 - > ; o.s.V g h f h g g f Z }.XX{.F Z V f ",
"h {.*X;X*X&X&XoXoXoXoXXX{.V s V G G {..XG.x.3.^.v.,.2.S.c.v.n.2.B./.,.,.v.v.>.>.4.1.7.[ % & [ j.Z C C Z F F C g {.*X;X*XXX}.F V ",
"h G *X*X&XoXoX&X&XoXXXXX{.g f G *X:X:X).x.) v.3.3.M.^.B.3.c.Z.x.V.B.V.Z.b.v.>.>.9.>.1.=.%.g.I.#X&X}.}.XXXX}.Z V XX;X;X*XoXXXG C ",
"h G &X*XoXXXoX&XoXXXXXXX{.g h G $XU.+.;.V._ o./ @.2.m.@.N.E.V.,.S.N.!.n.<.4.( ) M.) ^ ^ R [ G.+X&XXXXXXXoX}.Z V XX*X*XoXXXXXG C ",
"f C {.oXoXXXXXXXXXXXXXXXG g f G U.m.*.] T.[ X.] E O.W E E E O.] E | W / Z.3.^ T K I K Q U U =.K.oXXXXXXXXX}.Z V XX&XoXXXXXXXG V ",
"s h C F {.}.}.}.}.{.{.G C s s F U.8.#.*.:.W +.O.f.W.E.Q.+.q 0 0 0 0 q m./.^.#.T P z.~ ~ 1.! ! h.G G G G G F V g {.XXXXXXXX}.Z f ",
"h g g g C Z F F Z Z V h s s f Z +X;.^ ;.7.6.8.@.2.^./.c.7.$.f.T.T.f.-.~.B.B._ ~ ~ 9.Q T ( ~ Y v h h g g g f s s Z F G {.{.Z h s ",
"Z }.}.Z f s s s s s s s C F Z C OXg.I : 5 ` ` R :.W.!.,.#.! o.d.;.6.6.@.N.^.) L U *.; & ^ P 7 V h f f f h s s s s f h g h s s s ",
"G &X*X{.C g f s s s s f G {.F V }.+X..e u u e.} %.E.3.#.^ L ; { 0 q ' ' W 8.Q @ I *.& ; 5.P 0.}.G Z V V V V g f f h g g h s s s ",
"G &X;XoX{.F C f s h V C G G Z g {.@Xg.0 z r r r | m._ >.) L 5 e.q.y u u %.R.Q @ I z.L d.d.& I.&XXXG C C F {.{.F G G G F F Z V h ",
"F oX*X&XoXXXF g g G {.F C C g h G  XK.{ 0.0.k u 0 :.7.#.$.R } w.q.z z u s.!.! @ & *.1.o.; = $X&XXXF g C }.*X*X*X*X&XoXXXXXXXG C ",
"F XX&XoXXX}.Z h F &X*XXXF V s f F G k.] e t t t { R *.d.[ e z t.t.w.q.q.+.!.! = - - 5 - $ 8 =XoX}.C h Z &X;X;X*X*X*X&XXXXXXXG C ",
"Z }.oXXXXX{.C f {.*X*X&XXXG C g g g m ..0 q.q.q.e.} } } 5 e q.z q.e.k r | !./ * 4 3 3 3 $ 0.=XoX}.C g F &X*X*X*X&X&XoXoXXXXXG V ",
"g Z G {.XX{.V f }.&X&XoXXXXXG Z f s c &.9 u y u r k k k u u z z u 0.k y | R./ = 4 3 3 4 * k.&XoXXXC g F &X*X&X&XoXoXoXoXXXXXF h ",
"f f g Z G Z h s G }.}.{.{.{.G F g s S Q.+.0 u k k w w e e 0 q.q.t.w.w.t.O.R.Q = 4 4 4 $ 5 I.XXXXXXC g F XXoXXXoXoXoXoXXXXX}.Z s ",
"Z V h s s s s s C C V h h g g s s s D P.F.y.i.p.h.u.m x z z z z z z z u &.A.) I $ 7 7 e r.|.{.G {.C g Z }.}.}.}.XXXXXXoXXXG g s ",
"XXG C f h V V g f f f f h g V g s h F  X X X}.}.|.H C v S l.l.k.k.l.j.p.T.b.4.Q r.n A A Z V h h h s s g V g V F }.XXXXoX}.C g C ",
"oX}.Z g F {.{.Z f g F {.{.G F Z g f V C C C C C V g s s h g V V V V v J.F.f.&. .v h h h g h h h f f f h f s s g F {.{.{.Z h C XX",
"XX{.C g }.&XoXG g G *X;X;X&X}.F g h h f s s s f s s s f f s s s s s s s S S c f s s V F F G {.{.G F Z C V g f s V C C g s g {.*X",
"XX}.Z g F XX}.C g }.*X;X*XoX{.F C F F V f C {.XXXXXX}.}.{.G Z V f g Z F F F Z C h g G *X*X;X*X*X&XoXXX}.G C h f h f s s s Z XX&X",
"XX}.Z s g F F g V XX*X*X&XXX{.F V {.}.C f Z XX*X*X*X*X*XoXXX}.F h F XX*XoXXX}.{.C V {.;X;X;X*X*X&X&XoXXX}.Z V F G F V s s V G XX",
"}.F V f g V h s Z oX*X&XoXXX}.F g F F V s V G {.XX&X*X&XoXoXXXF f F *X:X&XoXoXXXZ V G ;X;X*X&XoXoXoXXXXXXXZ C G XX{.C s f h V Z ",
"Z h s V F V s s F oX*XoXoXXX}.F f h g f f h h h C G }.}.}.}.G C s Z XXoXXXXXoXXXF V F &X&XoXoXoXoXXXXXXXXXF V Z G C f f C V h h ",
"h s s C G F g f F XX&XoXXXXX}.Z s s g F G G Z g h g V g g V h s s g F {.{.XXoXXXF g C XXXXXXXXXX}.XXXXXXoXF h h h s h G XX}.F Z ",
"Z V f h V g f s Z {.XXXXXXXX}.Z s C XX*X*X&XXXG C h f h V V V g g V V C G XXoXXXZ h V G {.{.{.{.}.}.}.XXXXF h s s V G &X*XoXXX}.",
"{.Z h s V V h f V Z G {.}.}.G C g }.;X;X;X*X&XXXF g g G XX}.{.{.{.G V h F }.XXG g s h C C C C C C Z Z F F V f s C }.&X*X&XoXoXoX",
"}.Z h V {.}.F g g h g Z F F V h C &X;X*X*X&XoXXXF g Z &X;X;X*X*X*XXXZ f Z F F V s s f g f s s s s s f f f s s V XX*X*X&XoXoXoXXX",
"{.C h Z &X&X{.V g h f f s s s s F oX*X&XoXoXXX}.F f V XX*X*X*X*X&XXXZ s f f s s s s V F C h h C Z F G G F V h Z *X*X&XoXoXoXXXXX",
"Z h f F &X&X{.V g Z G Z g g g g Z }.oXoXoXXXXX{.V s h G &X*X&X&XoX}.F g Z Z V s V V C C g Z {.oX&X&X&XoXXXF g Z oXoXXXXXXXXX}.{.",
"h s h {.&X&X{.C C {.oX{.C F G Z V Z {.XXXXXX}.G s s g C {.XXoXoXoXXXF C {.{.Z V G F V g C }.*X;X*X*X*X&XoXG V g F F F F Z Z C C ",
"s s g {.XXXXG C Z }.oXG V F {.F g h C F G G F V s g C g C G XXXXoXXXF V G F C F XXG V g {.oX*X&X&XoXoXXXXXF h s f f f s s s s s ",
"C g V F G F V f h F F V s g V g f f f f s f s s s f h s s V F {.XX}.Z f V g Z }.oXG V V F G G {.{.{.G G Z g s s s h V C C C C C ",
"{.F C g g f s s f g h s s C F G G G G F F F Z C V h h g g f f V F Z g s f V G XXXXF g f g V V C V C C V h s s h F {.}.XXXX}.{.{.",
"XX{.C s h V Z Z Z V f s g {.&X&X&X&X&XoXoXoXXX{.G V V Z C g s s h s s s s C F G F C f s C F G G G F F Z V s s C XX&X&X&XoXXXXXXX",
"XX{.V f Z }.oXoXXXG C s C oX;X*X*X*X*X&X&X&X&XXX{.C C F C C V f s s s s f g g g h f s g }.*X*X*X*X*X&XXXG h f F oX&XoXXXXXXXXXXX"
};
