/* XPM */
static char *out[] = {
/* columns rows colors chars-per-pixel */
"64 64 233 2 ",
"   c #3E1B29",
".  c #3B2034",
"X  c #3F2A39",
"o  c #701F0B",
"O  c #60221D",
"+  c #69281A",
"@  c #752A14",
"#  c #73311F",
"$  c #4E2223",
"%  c #5F2B21",
"&  c #532A2A",
"*  c #5F3333",
"=  c #662D24",
"-  c #69312B",
";  c #7D3922",
":  c #6B3931",
">  c #75402B",
",  c #7D4B31",
"<  c #71473E",
"1  c #784B3D",
"2  c #7C4E3E",
"3  c #765137",
"4  c #7D533D",
"5  c #433241",
"6  c #453C49",
"7  c #494949",
"8  c gray29",
"9  c #4C4C4C",
"0  c gray30",
"q  c #4E4E4E",
"w  c #554B40",
"e  c #494B5A",
"r  c #4C505E",
"t  c #505050",
"y  c gray32",
"u  c #535353",
"i  c gray33",
"p  c #555555",
"a  c #565656",
"s  c gray34",
"d  c #5E5856",
"f  c #585858",
"g  c gray35",
"h  c #5A5A5A",
"j  c #5B5B5B",
"k  c gray36",
"l  c #5D5D5D",
"z  c gray37",
"x  c #5F5F5F",
"c  c #654544",
"v  c #795444",
"b  c #7D5941",
"n  c #73574D",
"m  c #695E5A",
"M  c #765E55",
"N  c #6E655F",
"B  c #7A675E",
"V  c #7D6D5E",
"C  c #404F61",
"Z  c #4D5B66",
"A  c #536371",
"S  c #576F78",
"D  c #606060",
"F  c gray38",
"G  c gray39",
"H  c #656565",
"J  c gray40",
"K  c #676767",
"L  c #686868",
"P  c DimGray",
"I  c #6A6A6A",
"U  c gray42",
"Y  c #6C6C6C",
"T  c gray43",
"R  c #7C7067",
"E  c #7E756E",
"W  c #64737D",
"Q  c #657E7B",
"!  c #717170",
"~  c #727272",
"^  c #757474",
"/  c #767676",
"(  c #7E7774",
")  c gray47",
"_  c gray48",
"`  c #7C7B7B",
"'  c gray49",
"]  c #7E7E7E",
"[  c #843112",
"{  c #8C3814",
"}  c #984013",
"|  c #A44818",
" . c #AC521A",
".. c #B85C1C",
"X. c #824123",
"o. c #844926",
"O. c #8E4E25",
"+. c #964822",
"@. c #9C4D22",
"#. c #8E5320",
"$. c #8F5A2D",
"%. c #99572B",
"&. c #844E33",
"*. c #845539",
"=. c #915031",
"-. c #985C37",
";. c #A75C2A",
":. c #B55720",
">. c #98602A",
",. c #A16325",
"<. c #A66B2D",
"1. c #BD6521",
"2. c #B4602E",
"3. c #B2692B",
"4. c #BE7029",
"5. c #A46538",
"6. c #B96934",
"7. c #BE6F36",
"8. c #AC7039",
"9. c #B97835",
"0. c #BC7F3C",
"q. c #C16E17",
"w. c #D06E1B",
"e. c #C27619",
"r. c #D3771F",
"t. c #C86725",
"y. c #C87C23",
"u. c #C87229",
"i. c #CA7531",
"p. c #C67A3A",
"a. c #815647",
"s. c #825945",
"d. c #835D47",
"f. c #8D5F42",
"g. c #826C41",
"h. c #87604B",
"j. c #936544",
"k. c #9D6D49",
"l. c #8E6950",
"z. c #826958",
"x. c #91745F",
"c. c #AE7C46",
"v. c #A87649",
"b. c #B17548",
"n. c #A77C56",
"m. c #85746A",
"M. c #947C6B",
"N. c #847973",
"B. c #7A897E",
"V. c #CF802F",
"C. c #CE8828",
"Z. c #D38022",
"A. c #D6872A",
"S. c #DC832A",
"D. c #C6843B",
"F. c #CB8B3E",
"G. c #DE8A34",
"H. c #D58D3B",
"J. c #D79131",
"K. c #DC9735",
"L. c #E1953C",
"P. c #B58856",
"I. c #928079",
"U. c #A68167",
"Y. c #B79460",
"T. c #A18673",
"R. c #A38B7F",
"E. c #A8937D",
"W. c #C9964B",
"Q. c #DB9044",
"!. c #CE8A54",
"~. c #D79C54",
"^. c #E5A041",
"/. c #E8A745",
"(. c #EBAC51",
"). c #F5BC5C",
"_. c #C59E6E",
"`. c #CDAC76",
"'. c #5C7380",
"]. c #5A7E8A",
"[. c #678995",
"{. c #6D97A0",
"}. c #7BB4C0",
"|. c #818180",
" X c #838282",
".X c #848484",
"XX c gray52",
"oX c #878786",
"OX c #888888",
"+X c gray54",
"@X c #8C8C8B",
"#X c #8D8D8D",
"$X c #8E8E8E",
"%X c gray56",
"&X c #958883",
"*X c #9A8F88",
"=X c #919090",
"-X c #929292",
";X c #939393",
":X c gray58",
">X c #959595",
",X c gray59",
"<X c #979797",
"1X c #9E9390",
"2X c #989898",
"3X c gray60",
"4X c #9A9A9A",
"5X c gray61",
"6X c #9E9D9D",
"7X c #9F9F9F",
"8X c #A6988B",
"9X c #AB9E91",
"0X c #B8A087",
"qX c #BCA893",
"wX c #81A7AC",
"eX c #8CB1AD",
"rX c #A1A1A0",
"tX c #A2A2A2",
"yX c #A4A3A3",
"uX c #A6A6A5",
"iX c #A8A7A7",
"pX c #AAA9A9",
"aX c #ACACAC",
"sX c #AFAFAE",
"dX c #B2AEA8",
"fX c gray69",
"gX c gray70",
"hX c #B6B7B6",
"jX c #BBBAB9",
"kX c #CFB898",
"lX c #89CED7",
"zX c #96C8D2",
"xX c #9FE6EC",
/* pixels */
"8 8 q G XX6X4X,X$X/ i 0 J .X;X:X:X>X:X:X-X$X XU a F ` 4XfXhXsXiXrX4XrXrXrX5X4X;XOX_ L s g T oX;X-X+X) H s h Y ^ U z i 0 8 8 8 q ",
"h q 8 a / $X=X#X|.P t q x ^  XXXOX@X@XOX X) P h k ` tXhXhXfXsXsXiXuXiXiXtXrX4X4X3X$X` J g D ~  X] Y l g G ] >X;X) f 8 8 8 t j D ",
"! k q y ! @X=XOX! g i x J G J Y ~ / / ~ U z t t L =XfXhXsXiXtXtX5X4X4X4XrXrXrXrX2X>X#X` J l x J D t t P =XsXfXrX] s 8 u F ~ oX=X",
"oXY t y I oX=X XF i Y  X.X! g q q q q t u i t q D oXuXsXtX5X4X4X4X4X4X4X4XrXrXrX4X,X=X@X] I a q 0 s ~ <XaXsXuX,X` s q P #XtXpXuX",
"%X|.H i G |.$X|.G g ! +X$X_ f 9 y a h F Y / ! z j / ,XtX4X4X4X4X4X4X4X4X4X4X4X4X:X=X=X=X#X^ s q z ' 2XpXsXiX7X=X~ y s |.aXhXsXiX",
"=X+X) s x ] -X XJ f G ! ^ K u h T ` XX+X=X:X@X/ z J ' ;X,X,X,X,X4X,X,X4X<X,X,X,X>X=X=X=X@XT i j ' rXaXaXiXrX4X%X~ y F %XhXhXpX6X",
"=X%X' s z ) $X XH t q y y q 9 D .XtXsXuX6X4X<XoXU l P  X$X=X=X=X-X$XOXOXOX#X#X#X$X#X#X+X` z u T 3XsXaXrX6XrX6X-X~ u G =XfXaXtX4X",
"=X@X' s z / +X^ s 8 q z H F h l ) 7XaXtX4X>X-X#X_ D f P _ |.|.|.|.^ T H G Y ~ ! U K P K g 9 h |.tXpXrX4X4X6X7X=X~ i H @XiXtX5X4X",
":X%X' p h T ^ z 0 y Y @X>X@X^ z H ] +X@X+X+X#X@X] J y i z x x x k a u q 0 i f i q 0 q q 8 7 g ' 2X6X4X4X4X4X4X%X~ u F .XtX5X<X<X",
".X' T q u z j q 0 F $XaXgXpX$XU j x K I Y ! ) _ ! l q 8 q y i s a f g k k z z l l s t 8 8 7 y L ] OX@X#X-X:X;X#X~ y l ` >X;X%X$X",
"F k p 8 9 q 0 8 f ' iXhXjXfX5X] G s y t t a h f u q 9 a F L ^ ]  X.X.XoXoXoXoXOXOX` I a 0 0 u l H P Y ~ _ |..X] I q s T  X X' ` ",
"i f s y 9 8 8 q T <XgXhXfXaXyX-X] ~ U I L G g 0 7 8 g ^ =X4XrXuXiXiXiXyXyX7X6XyXrX<X.XP a z ~ ` ~ F g p s z J H a 8 t g F x h f ",
"~ |.' I j q 8 u ) 6XaXpXyXyXrX4X-X+X+X#X+X] Y p 7 9 L ;XhXjXjXhXhXsXaXuXyXrXrXuXiX6X=X' G Y @X2X+XT p 7 8 h ~ ^ L F D F l f t 0 ",
"2XaXrXOXT j q t T %XrXrX6X6X4X4X<X-X4X9X8X*XI.( Y R XX8XqXkXkXqX0X9XuXdXdXaXpXdXaXtX,XOXY P XX<X%X! a q u U :X7X:X+X.X] / T U F ",
"rXgXuX2X.XT j t j / =X2X<X<X3X4X2X3XqX0XU.x.M.I.M.M.T.n.v.!.~.!.8.l.T.8X9X8X8X8X1XR.E.E.x.B ^ XX_ x a j z T 4XfXaXtX5X<X=X#X+X` ",
"=XyX7X3X-X|.T f y F ' $X=X=X;X;X,X0X_.v.*.a.d.l.l.l.k.3.3.i.i.3.X., l.x.x.x.x.x.l.c.W.W.0.k.z.~ G s L ~ L Y -XpXiXrX6X6X2X2X>X X",
"/ oX%X=X%X|.T f q p K / _ ) / ` T._.D.O., a.s.d.h.j.8.p.V.u.2.X.= 1 s.d.d.d.d.f.>.F.^.H.i.6.f.N f g _ |.P J oX6X4X2X2X2X;X;X%X_ ",
"j K ^ ' ) P h q 8 9 i g h s f V P.F.8.X., 2 2 4 4 *.%.5.5.;.X.+ : 1 v s.d.s.*.>.9.Q.Q.i. .| O.v u a T ~ D j ~ OX@X@X+XoX.X X' Y ",
"q i h x h t q q 9 8 q y u y s V v.<.o.% & & & & & % % % % % $ $ * : : < < 2 &.b.Q.H.V.;.[ @ @ X.v g z z p t l P T T Y H H K D g ",
"z u 0 8 q s G J g t h T _ _ _ ] x.4 &                             $   X X $ % *.9.D.p.=.# = + @ , B T P z y t u i p k D J P L F ",
"` H i 0 D ' #XOXY h K -XaXsXiXrX4XN.c $   . . X X X 5 X X . . . .   . e r X   $ = o.$.X.: : - + ; l.1X%X^ f s h p y T oX:X-X;XoX",
"$X` G s / 5XuX<X/ x I 4XhXjXgXaXiX7XI.c $   . 5 e S '.Z 6 5 5 5 5 6 Z [.{.A Z r X $ & % - : : - @ =.R.5X) l Y ) ! F oXiXgXsXyX<X",
";XXX! x XXiXpX3X/ z L 2XgXgXsXuXrX7X6XI.c   . 6 '.zXlX{.C 6 r W Z S }.{.[.wXzX}.A 5 X & % - : : + ; x.1X~ F |.:X.XU oXiXhXgXuX,X",
"%X.X^ G  XrXrX;X/ k G +XrXuX6X3X<X:X2X,XN.c   X A zXlX[.e 6 ! hXB.Q wX'.Z eXxXlX].A Z 6 & % - - = @ =.I.T F oX3XoXK / 2XaXuX7X,X",
"=X XY x _ =X%XoXT j l ~ oX-X2X4X2X>X>X;XoXB *   5 J Q x n 4 l.`.Y.g.b w 9 B.eX{.W wX{.r X $ = - - + X.x.I k .X2XoXJ L XXyX7X3X:X",
"+X/ x y H ^ ! U h 0 q f G ^ $X3X,X:X:X;X+XN.M % $ : g.k.P.W.W.F./.F.,.>.>.c.Y.g.N <X[.e 5 & & - - + ; l.G s ' -XXXK k ^ =X>X;X%X",
"T z i y j G F G j i p p i F ] $X#X#X$X%X=XE.P.%.o.9.L.H.J./.^.C.J.A.G.A.q.L./.0.$.c 6 5 * & $ % = + ; j.m u ! ] ^ x y l / ] oXOX",
"a p G T ! T ~ ) ` / ~ P k h Y / ^ )  X@XE.Y.F.A.C.^.G.Z.e.C.e.G.^.S.Z.Z.A.r.q.e.<.X.- % & & $ $ O [ | j.d q z L x i t y k G P ^ ",
"k ] rXsXpXtXrXrXrX5X:X.XU s u y q d m.Y.W.A.r.S.K.J.Z.Z.Z.J.Z.r.r.q.q.K.^.r.w.y.y.9.9.O.= % $ $ @ } 2.j.p 9 t y t f F H x a y t ",
"/ 7XhXhXsXiXtXrXrX5X<X@XT i q y k V P.~.J.A.S.r.Z.y./.^.A.^.A.q.y.J.J.e.y.w.w.r.q.V.Q.7.;.%.: O @ @.5.z.h h l g g ^ =X>XXX/ T F ",
"XXaXhXsXyXrX5X4X4X4X<X@XT i s ^ E.Y.y.q.Z./.L.u.y.C.K.V.Z.Z.A.C.J.(.J.1.Z.G.S.r.1.t.t.t.i.i.+.+ @ X.s.V ~ / ! F G #XfXhXuX:XOX^ ",
"] uXsXyX4X4X7XrX4X,X>X@XY f P *X_.F.q.q.S.r.e.G.Q.(.Q.y.J.C.K.y.K.K.J.^.L.S.S.r...t.r.t.t.t.2.5.b.U.I.@X=X=X|.L U 5XhXhXuX3X;X' ",
"' 6XiX5X,X3X7X5X<X-X=X+XN.x.j.j.c.J.V...:...3.D.D.H.y.C.^.K.K.q./.^.J.^.Z.r.S.w...u.G.4.....:.+.=.b.T.*X<X,X XL U 4XpXuX4X>X;X' ",
"P .X2X3X>X>X,X>X>X:X=XXXM.P.p.%.;.H.D.@.+.@.#.>.>.#.#.,.<.8.b.%.,.<.8.;...G.Z... .| } { [ } | [ { 2.b.&X>X-X XL I :XrX4X>X>X%X' ",
"g L / .X@X@X@X@XoXXX|.! V b.i.;.@.%.O.o.$.$.5.0.0.0.9.$.o., o., , , , O.e././.4. .{ @ +.} [  ...| :.k.m.] ` ! z G OX-X>X>X:XOX! ",
"j l z L T ^ / ~ ! L z u M b.u.4.p.p.9.7.8.<.9.L./.K.H.0.$.#.-.$.#.$.o.>.(./.^.V.1.} | 7...|  .1.:.} =.m x k u 0 s ! ) |.oX.XT h ",
".X XY s u u t q q q 8 g E v.;. .2.3.7.7.3.3.4.C.)./.C.p.7.6.!.!.!.!.D.0.^.J.K.V...} | t.:.} } :.| [ 1 d i i 0 8 9 u f k D k y 9 ",
"6XtX XJ h y 8 8 8 7 0 I  XM.-.{ # X.o.o.X.O.,.D.(.J.u.t...@.2.6.7.p.p.p.4.H.(.A. .{ } 2.} o [  .} @ n H l z j a t t a h h p 0 8 ",
"tXgX2X|.! G i 0 t g x ~ ] N.k.O.> 3 4 *.*.&.-.0.^.y.1. .| [ [ O.O.#.=.=.#.,.V.q.} o { 2.{ o { 2.} # M K L ^ ' / T ~ ^ ^ T Y J k ",
"6XsXrX<X@X/ z s Y _ ^ Y U L x.f., b 3 3 4 4 -.0.H.q.1...| @ ; *.s.4 2 2 , $.p.1.{ o { 6.} [ 2.6.{ ; M D ! %XyXyX6X6X2X;X$X#XoX/ ",
"<XyX6X<X$X^ k K #XtX>X) J f B f.&.4 4 1 3 3 *.<.V.q.q.1.@.; &.*.a.v v v 2 5.Q.u.{ o [ 6.1...7.@.@ 1 N l ` uXhXhXsXaXuX6X,X>X%X' ",
"%X4X<X-XOXY a ^ rXfXuX=X` K N h.o., v 2 2 4 &.O.4.p.1.3.+.> s.f.h.b b b *.5.Q.i.{ o @ @.2.:.+.@ + n P F  XiXgXfXpXuXtX5X2X>X%X' ",
") XX+X=XoXL i ` rXiXrX2X%X] ! l.=.> 1 1 1 1 , o.@.6.3.-.> 1 d.l.l.h.d.d.s.5.Q.i.{ o + # ; ; = O - M J G XXuXpXuXtX5X5X4X4X>X$X) ",
"j J ^  X) x t / =X:X%X@X@X X` x.$., a.a.a.a.*.&.o.=.*.> : v s.d.d.h.a.v 3 $.H.i.{ O + = = = % O > B F G  X6X6X4X5X4X4X4X,X:X@X! ",
"g s g z h q 0 K ~ ~ I K P P G z.$.o.4 b b s.4 2 2 2 1 < 1 4 a.v 2 2 1 1 3 #.F.i.{ + % - - - O O 2 m.F F ` -X-X=X-X:X:X<X<X=X|.J ",
"T D t t p p p g g a y y a j g z.v.-., 3 3 3 3 1 1 1 1 2 2 b b s.b a.a.s.b $.F.u.{ + = = = % O # s.B p f P ~ ! ^  X$X=X,X3X@XT l ",
".XY g G ! ^ L p u z P Y Y U L m.P.8.*.3 4 v v 2 1 1 1 1 3 b s.d.d.h.d.h.d.>.D.4.{ o O O O O O ; v d q y s i t s Y  X@X#X#X) z D ",
"oXU l ' -X-X` l H XX5XtX<XoX) E M.n.l.s.M M n n n n n v v b b b b b s.b *.<.Q.V. .[ O * c < < a.B K F z j a t q f Y ^ ^ Y h h ^ ",
"oXU z ' <X,X) x ) tXhXjXpX-X' ! R N.m.m k N ^ ( ( N.E m.R R V B B z.z.l.k.0.G.S...+.2 m.&X1X1X1X;X@XXX] ^ P l y t h h a t 9 K +X",
"+XT f J |. XK k |.iXgXaX7X@X` I ! |./ k g ^ -X6X7XrX6X2X=X$X.X/ I N.&XE.E.P.p.V.2.-.M.yXgXjXhXfXpXrX5X>X@X` G k F H z y 8 0 I oX",
"|.P y f L L g F OXuXiXrX2X#X' K Y  X/ h a ~ %X6XuXaXaXuX4X<X@X^ s ~ 4XfXiXE.Y.P.x.B ( iXjXhXaXuXrX6X5X>X=X XP L ' XX) F q q k T ",
"K h f G D y 9 K =XuXtX4X<X=X] G x I G u t F T ^ oX,X6X3X,X:XOXT u ! 5XaXrX9XrX8X|.P ! 6XgXiXrX5X4X3X<X:X;XoXU L ` oX^ k t f f h ",
"t q F / I i 0 U =XyX6X3X>X%X] x q i h z F D h s F ~ ` _ _ _ Y j 9 H  X=X%X;X3X;X` G L @X6X4X<X<X<X>X:X>X<X#XY z K U g i G ^ T D ",
"t t D ! T k y I OX4X4X>X-X%X` h 9 k / OX@X.X^ F h g g s h l s q q j U ) |.-X4X;X_ D x ` %X=X$X@X$X%X=X;X<X$XU i t t y K @X4X=X] ",
"G p u l j i q G ) +X=X%X-X#X) k z XXuXsXaXyX:X' J a a F Y U I K K K D F / $X<X%X! g g Y _ ` ` ` ]  X XXX@X XK t 9 f ! @XuXuX4X:X",
"Y f u J U D a k G T `  XoX` I l ^ uXjXhXgXiX6X@XT j K +X4X<X=X$X$X XJ s T  XOX_ z q t z F x z z l D G K I H a t g _ 2XiXpX7X4X4X",
"U f G oX=X' F j s a F P U F p k .XaXgXpXyX6X,XOXY k ^ yXhXhXfXpXuX>X! i G U U z 0 8 t l j t 8 0 t u f j h p 0 t ! rXfXpX7X4X4X3X",
"F s Y 4XtX+XK k h h f y q 0 9 x XX7XyX6X3X2X=X XL y J :XaXsXaXuX7X%X! i a s y 9 0 t k Y I z k L ^ _ |..X|.~ D k ` iXpX6X2X2X2X:X",
"i i ^ 5XrXOXL l U ] / G z D x G ) $X2X3X<X;X@X) f 9 k ' 6XyXrX7X4X@X/ D T ~ J i x G H H x L |.,XyXyXyXrX3XOXT F ^ :X;X%X@X+X+XXX",
"8 s |.5X7XOXY J ' >X@XT Y ` / J G ^ oX#X#X@X.XY 0 y z L  X-X3X3X4X=X/ K ]  X! G ) ) K k G ] 6XfXgXaXpXyX6X=X~ k z T T T T L K F ",
"0 k ] =X$X` K L |.;X XJ L _ ) H a j P ~ / ^ I f 0 k F j J _ #X;X2X%X/ F ^ ~ P ~ $XXXL j ~ $X6XrX6X4X<X>X=X.XL t 9 y u i t t q q ",
"l F ! ) ~ F i i U ~ H u a F F h a a s p i p t 0 q u p t y F ~ |.@XOXT p l l I XX<XXXL l I / _ ] |.|.] _ ^ J p 8 0 i k H I I P L ",
"^ K k j p y t u h g t q z ! ` ] ] ] _ / / ^ Y J x a f k h u i D ! U k 9 t z ^ $X=X` F i f D G J J H L J z i 0 0 z ) oX@X=X%X+XXX",
" XL t p z P Y Y G a 9 u ~ :XrX7X7X7X5X2X2X<X$X|.^ x F U G h q q s t 8 8 q F ~ ` ) U g q k T ) ` ` / ~ ! L h 0 u T ;XrXrX7X3X>X:X"
};
