/* XPM */
static char *result[] = {
/* columns rows colors chars-per-pixel */
"64 64 209 2 ",
"   c #191B1C",
".  c #202122",
"X  c #232323",
"o  c #252728",
"O  c #2A2B2B",
"+  c #2C2C2C",
"@  c #2D2E2E",
"#  c #2A2F31",
"$  c #2F3639",
"%  c #313130",
"&  c #333332",
"*  c #363433",
"=  c #343434",
"-  c #343535",
";  c #343536",
":  c #363536",
">  c #363737",
",  c #363738",
"<  c #383738",
"1  c #343C3F",
"2  c #393A3A",
"3  c #393A3B",
"4  c gray23",
"5  c #3D3B3A",
"6  c #3C3C3B",
"7  c #3A3B3C",
"8  c #3C3D3D",
"9  c #3D3E3E",
"0  c #3E3E3E",
"q  c #3F3E3F",
"w  c #383F42",
"e  c #3F4040",
"r  c #3E4042",
"t  c #3D4448",
"y  c #404141",
"u  c #414141",
"i  c #434140",
"p  c #424343",
"a  c #434343",
"s  c #404447",
"d  c #444444",
"f  c #444545",
"g  c #464646",
"h  c #43474A",
"j  c #444648",
"k  c #40484B",
"l  c #44484B",
"z  c #46484A",
"x  c #434A4D",
"c  c #464A4D",
"v  c #484949",
"b  c #494949",
"n  c #4A4A49",
"m  c #49494A",
"M  c gray29",
"N  c #4B4B4B",
"B  c #4F4949",
"V  c #4C4A4A",
"C  c #4C4B4C",
"Z  c #484C4F",
"A  c #4C4C4C",
"S  c #4E4C4C",
"D  c #4E4E4E",
"F  c gray31",
"G  c #504A4A",
"H  c #514B4B",
"J  c #524C4C",
"K  c #534D4D",
"L  c #544E4E",
"P  c #554F4F",
"I  c #474E51",
"U  c #495154",
"Y  c #4A5256",
"T  c #4E5255",
"R  c #4D5458",
"E  c #505050",
"W  c #515150",
"Q  c #515151",
"!  c gray32",
"~  c #535352",
"^  c #525353",
"/  c #565151",
"(  c #515355",
")  c #525456",
"_  c #555555",
"`  c #565656",
"'  c gray34",
"]  c #585151",
"[  c #595252",
"{  c #5A5353",
"}  c #515558",
"|  c #54585B",
" . c #525A5D",
".. c #585959",
"X. c #5A5959",
"o. c #5A5A5A",
"O. c #5B5A5B",
"+. c #5B5B5B",
"@. c #5F5A59",
"#. c #5F5A5A",
"$. c gray36",
"%. c #5C5D5D",
"&. c #5F5F5F",
"*. c #605B5A",
"=. c #615C5B",
"-. c #615C5C",
";. c #645E5E",
":. c #565F63",
">. c #605F60",
",. c #5F6060",
"<. c #5E6366",
"1. c #606060",
"2. c #606161",
"3. c gray38",
"4. c #626261",
"5. c #626262",
"6. c gray39",
"7. c #676262",
"8. c #636464",
"9. c #656565",
"0. c gray40",
"q. c #666767",
"w. c #696363",
"e. c #6B6463",
"r. c #6B6565",
"t. c #6C6564",
"y. c #6C6666",
"u. c #60676A",
"i. c #686868",
"p. c DimGray",
"a. c #6E6B6B",
"s. c #6D6D6D",
"d. c gray43",
"f. c #6F6F6F",
"g. c #716A69",
"h. c #766F6E",
"j. c #656D71",
"k. c #687175",
"l. c #6C7377",
"z. c #6E7578",
"x. c #6F787B",
"c. c #707171",
"v. c #727272",
"b. c gray45",
"n. c #757171",
"m. c #747474",
"M. c #767575",
"N. c #767676",
"B. c #7A7271",
"V. c #7B7372",
"C. c #7C7473",
"Z. c #797574",
"A. c #7D7574",
"S. c #727A7D",
"D. c #737C7F",
"F. c gray48",
"G. c #7B7A7A",
"H. c #7A7B7B",
"J. c #7C7C7C",
"K. c gray49",
"L. c gray50",
"P. c #807A79",
"I. c #837E7D",
"U. c #757D81",
"Y. c #767E82",
"T. c #777F83",
"R. c #788084",
"E. c #798185",
"W. c #7B8489",
"Q. c #7C868B",
"!. c #7E878D",
"~. c #808080",
"^. c gray51",
"/. c #838383",
"(. c #858180",
"). c #848484",
"_. c #8B8685",
"`. c #808A8F",
"'. c #888888",
"]. c #898989",
"[. c #8B8B8B",
"{. c #8D8988",
"}. c #8E8E8E",
"|. c #948D8D",
" X c #838C91",
".X c #8C9397",
"XX c #909090",
"oX c gray57",
"OX c #929292",
"+X c #959595",
"@X c #979797",
"#X c #9A9392",
"$X c #9F9796",
"%X c gray60",
"&X c #9A9A9A",
"*X c gray62",
"=X c #A69D9C",
"-X c #A9A09F",
";X c gray63",
":X c #A5A5A5",
">X c #A7A7A7",
",X c #ADA3A2",
"<X c gray66",
"1X c #AFAFAF",
"2X c #B1A6A6",
"3X c #B6ABAA",
"4X c #BBAEAD",
"5X c gray72",
"6X c #C2B4B4",
/* pixels */
"` D M ! J.;X1X;X&X[.s.M +.).&X&X&X+X+X+X+X+X+X[.1.M D s.+X1X1X&X).).[.XX+X+XXXJ.0.+.! ` s.[.&X+X+X+X[.m.! M ! 1.s.s.0.+.+.+.+.+.",
"D M M D 0.[.;X&X+X[.s.M ! m.XX+X+X+X+X+X+XXX[.m.` +.m.+X1X5X1X<X;X&X;X;X;X&X&XXX).m.1.! 1.J.XX+XXX).s.+.! 0.m.s.1.` D M M M D D ",
"0.+.D M ` J.XXXX[.J.1.M ! 0.J.).).[.[.[.).J.s.+.` m.;X5X5X1X1X1X<X<X<X<X;X;X&X&X&X[.m.1.` 0.J.).m.1.` +.m.+X&X).+.M M M D +.1.0.",
"[.m.+.D ! m.XXXX).0.! ` 0.0.1.0.s.m.m.m.s.1.! M 1.[.1X5X1X<X;X;X&X&X&X&X;X;X;X;X+X+X[.m.1.+.1.0.! M +.).1X5X<X[.+.M ! 1.m.[.+X+X",
"+X[.s.D ! s.[.XXJ.` ` J.[.).0.D M M M M D ! ! D ` J.;X1X;X&X&X&X&X&X&X&X&X;X;X;X&X+XXX[.J.1.D M D 0.XX1X1X<X&X).+.M 0.XX<X1X<X&X",
"+XXX).0.! 0.).XXJ.+.+.J.XX[.s.M ! ` +.1.s.J.J.0.` s.XX;XF.f.f.f.f.f.M.%X&X&X&X&XXXXXXXXX[.0.D ! m.+X<X1X<X;X+XJ.! ! J.1X5X1X<X&X",
"XXXX[.J.! 1.).+XJ.1.` 0.s.s.+.D s.J.[.XX+X&X+X).1._ F 1.-.[ [ [ { [ L >.6.N.+X+X+XXXXXXX).+.! s.&X1X1X<X;X&X+XJ.! +.[.5X5X<X&X&X",
"[.XXXXJ.! 1.J.XXJ.+.M M D M M D m.&X5X1X;X&X&X'.C m e.a.2X2X,X,X,X2X4Xn.t.#.W F.[.[.[.).s.D +.[.1X1X;X&X;X;X&XJ.! +.[.1X<X;X&X&X",
"XXXX[.J.! 1.J.[.0.D M ` s.s.0.+.1.[.<X;X%XOXO.S n._.-X-X-X,X|.{.{.=X-X-X-X|.Z.z 6 ' &.+.M M s.&X<X;X&X&X&X;X+XJ.! 1.).<X;X&X&X+X",
"+X+XXXJ.D +.s.s.! M +.).;X;XXXs.` s.J./.3.3 A.#X4X#X{.{.|.,X(.I.I.=X#X{.{.#X3X#XP.* : b M M 0.[.&X&X&X&X&X&X+XJ.! +.J.;X&X+X+X+X",
"J.J.m.0.M ! +.! M ! m.<X5X5X<X).1.` +.M g.$X#X#X$X-X(.Z.a.$ . . . # e.Z.I.=X=X#X#X$XB.: b M ` s.J.).).[.XXXXXXJ.! ` m.XXXX[.[.[.",
"+.` ! D M M M M M 0.+X5X5X5X<X+Xm.&.u ;.2X2X|.{.(.I.]     o # # # # .   w I.I.{.{.-X4XB.< Q +.1.1.1.0.s.m.J.J.s.D ! 0.J.J.m.m.s.",
"M ` 1.1.` D M M ` ).<X5X1X<X<X;XXX3.w.$X|.=X=Xe.x   o # $ U I I I x $ # o   w ,.#X,X|.$XB.F ].[.s.+.D M D +.1.! M D ! ` ! D M M ",
"0.).&XXXm.1.D M ` ).;X<X;X;X;X&Xf.r.$X{.{.{.a.o . # t R x Q.D.S.S.z.x  .I $ o   ,.{.{.{.$XC.0.@X).1.M M ` J.[.J.m.s.s.0.1.` ! M ",
"J.;X5X<XXXm.1.D ! s.XX;X&X&X&X@Xa $X,X{.{.*.o # w  .j.Y.R Q.U.S.S.z.U `.D.:.t $ o I _.{.=X2Xi '.J.+.! ` 1.+X1X<X&X+X[.).J.J.s.+.",
"J.&X1X;X&X[.m.1.D ` m.XX+X+X+X0.h.$X-X=X*.o $ j.k.S.D.U.R Q.U.S.S.l.U !.W.E.k.u.w o I #X-X$XV.n o.! 1.0.1.[.1X1X<X;X;X&X&X+X).0.",
"s.).&X&X+X+X).m.` ! 1.J.[.[.].V {.#X|.a.o $ w `.Q.S.Y.T.R Q.Y.S.S.l.U Q.R.E.W.E.k $ . *.|.|.$X5 N s.).m.1.).;X;X&X&X&X+X+X+XJ.0.",
"` 0.m.).[.).m.1.D M ! 1.0.0.d g.$X{._.I .  .U Q.Q.T.T.D.Y Q.Y.T.U.l.U Q.U.T.W.Y.Y j.o 1 (.{.#XI.% s.).s.+.m.+X+X+X+X+XXXXX[.m.+.",
"M D +.0.s.0.` D M M M D D N & I.-X$Xa.. 1 u.Y W.E.R.T.D.U Q.R.W.T.z.U !.D.Y.W.S.Y U.t . @.$X=X|.r _ 0.1.D 1.m.J.J.J.m.m.m.s.1.D ",
"+.! D D D M M ` ` D D ` 1.g *.=X-X-XU . R x.U W.E.E.E.D.Y Q.E.W.T.z.U Q.D.D.W.x.Y !.<.o w #X2X$Xn.q +.` D ! ` +.+.+.` ` +.` ! D ",
").m.+.D M +.m.).J.1.` s.&Xc.*.-X{.Z.  w u.x.U W.T.E.E.x.U Q.E.W.T.z.U Q.D.S.R.x.Y !.k.k   ,.{.$XZ.~ [.J.+.! ! D M 1.m.).).[.J.m.",
"+X[.m.+.! m.&X;XXXs.+.m.1XH.=.-X{.n.  x S.x.U W.U.Y.Y.z.U Q.E.W.T.z.U Q.U.S.R.U.R !.Y. .  ,.{.$XP.4.;X[.+.1.s.s.` J.;X1X<X;X+X).",
"+X+X).s.+.[.1X<X+Xs.+.m.%X7.|.#X_.w o U S.x.U W.U.U.Y.z.U Q.E.E.T.x.U Q.U.S.R.T.R !.U.:.# # P.#X#X7.~.).+.m.XX[.0.).<X5X5X<X+X[.",
"XXXX).m.1.[.<X;XXXs.` s.~.P 6X4X-Xo t Y.S.z.U W.U.S.D.x.U !.Q.T.T.S.U Q.U.S.R.T.R !.D.l.x   |.4X6Xt.8.J.+.J.&XXX0.m.&X1X<X;X+XXX",
"[.XX).s.1.).&X+X[.s.+.0.p.L 2X#X_.. k  XD.x.U Q.T.D.D.x.U `.Q.D.R.S.U !.Y.D.R.Y.R `.U.D.U   Z.#X,Xt.%.m.! J.&XXX0.0.).<X;X&X+XXX",
"XXXXJ.1.! s.J.m.s.` M ! A J ,X{.(.o w k.u.<.k j.u.u.u.<.k j.j.u.u.<.k j.u.u.u.<.x k.u.u.k . Z.{.=Xt...s.D m.+XXXs.+.m.+X&X+XXXXX",
").m.1.! D +.0.1.1.! D ! u H ,X_.n.:.:.:.:.:.:.:.:.:.:.:.:.:.:.:.:.:.:.:.:.:.:.:.:.:.:.:.:.:.a._.=Xt...0.M s.).J.0.! +.J.).[.[.XX",
"0.` D +.0.0.0.s.m.m.s.s.A H 4X-X:.W. X`. X X`.`.`..X.X`.`.`.`..X.X`.`.`.`..X.X`.`.`..X.X`.E.R $X4Xt.^ 1.M +.s.0.` D D +.0.s.J.).",
"M ` J.;X1X<X;X;X;X;X&XXX5.H 4X$X .T.S.z.D.D.x.x.x.T.R.x.x.x.x.R.R.x.x.x.x.T.T.x.x.x.Y.E.x.k.Y #X3Xe.v ! M D ! D ! +.1.+.! D D ! ",
"D m.;X5X5X1X<X;X;X;X&X+Xp.H ,X_.Z.R k k k k k k k k k k x k k k k k k k k k k k k k k k k x a._.=Xe.2 ! ` +.+.! s.[.+X).m.s.1.! ",
"` ).1X5X1X;X;X&X&X&X&X+Xp.H -X_.(.o # w w 1 $ w w w w w $ w w w w w $ w w w w 1 $ w w w $ . n._.=Xe.f s.m.m.0.+.).1X5X<X+X[.m.1.",
"` J.<X1X;X&X&X;X;X&X+X+Xp.B ,X#X{.. t E.l.k.I Y.U.z.l.k.I T.D.l.l.l.I U.z.l.l.j.I T.x.x.x   P.$X2Xt.%.XX+X[.s.1.+X5X5X<X&X+XJ.0.",
"` J.;X<X&X+X&X;X&X+XXXXXp.B 4X2X=Xo k `.D.x.U Q.Q.R.D.x.U !.W.D.D.D.Y Q.U.S.D.z.Y !.W.E.U   |.3X6Xt.2.+X&X[.s.1.+X<X<X&X+X+XJ.0.",
"! 0.).&X&X+X+X+X+X+X+XXX5.B -X{.I.. k `.j.j.Y W.E.R.S.x.U Q.W.T.T.Y.Y Q.U.S.S.z.Y `.W.E.R   n.{.-Xt.2.+X+X[.s.1.XX;X&X+X+XXXJ.1.",
"D ` 0.m.).[.[.[.[.).).J.Q G -X{.I.. k Y.a.<.k W.E.E.U.x.U Q.E.R.R.D.Y Q.U.D.U.z.Y `.E.T.R   n.{.=Xe.^ J.J.m.1.+.).XX+X+X+X[.s.! ",
"` +.+.+.0.s.m.m.s.s.1.` 4 G ,X{.(.. x z.n.u.w W.T.T.T.x.U Q.E.W.W.x.U Q.U.T.T.z.Y `.E.T.R   n.|.=Xe.8 +.+.! M D s.m.J.).).s.` M ",
"s.[.[.s.! D D M M M M M E J 6X4X-Xo k Q.<.<.I W.U.U.E.S.U Q.Y.R.W.S.U Q.D.Y.T.z.Y `.W.R.Y   |.4X6Xe.> ! ` D M M D ! ` +.` D M M ",
"J.;X<X).0.+.! M M M M ! 5.K 2X#X_.. k  X:.,.Y W.Y.S.R.D.U Q.U.Y.W.S.U Q.D.Y.Y.z.Y `.Q.W.Y   P.#X,Xe.y 1.1.1.+.! ! ` +.+.` D M M ",
"J.;X5X&X).m.0.! D ` 1.0.5.K ,X{.I.. k  X,.,.Y W.Y.S.T.D.U Q.U.Y.W.S.U Q.D.Y.Y.z.Y `.W.R.I   n.{.=Xe.f 0.m.).).m.J.J.J.m.m.s.1.` ",
"m.&X1X;X&XXXm.+.+.J.).m.E H ,X{.I.. k  X,.<.Y W.Y.S.T.U.Y Q.U.Y.W.S.U Q.U.Y.Y.l.Y !.R.T.I   n.{.=Xe.8 0.[.<X1X<X<X;X&X+X+XXXJ.0.",
"m.+X;X&X+X[.s.` m.;X1X+X+.H 4X,X$Xo k  X,.<.Y W.U.S.U.Y.R Q.U.Y.W.S.U Q.Y.E.E.x.Y !.R.E.U   _.,X4Xe.2 s.;X5X5X1X1X<X;X+X+XXXJ.0.",
"s.[.&X+XXX).0.! ).1X1X;Xv.K 4X-X#Xo k T.u.<.k W.U.S.S.U.R Q.U.Y.W.S.U Q.R.W.W.x.Y !.R.W.Y   _.,X4Xe.8 m.;X1X1X<X;X;X&X&X+XXXJ.1.",
"+.s.J.).XX).1.! [.;X;X&XN.L ,X{.I.. k z.a.,.w W.Y.S.S.U.R Q.U.Y.W.S.U Q.R.W.W.x.Y !.R.R.U   n.{.=Xe.8 m.;X<X;X;X&X&X&X&X+XXXm.` ",
"! ! +.s.J.s.` D J.[.[.).i.K ,X{.I.. k Q.u.<.I W.Y.S.S.U.R Q.U.D.U.x.U Q.R.R.E.x.Y !.T.Y.I   n.{.=Xe.8 m.+X&X+X&X&X&X&X+X+X[.s.D ",
"s.1.` D D D M D 0.0.1.` d H 2X#X{.. k `.z.l.U W.Y.S.S.U.R Q.U.S.S.z.U !.Q.Y.T.x.Y !.U.S.I   P.#X2Xe.8 s.[.[.[.[.XXXX+X&XXXJ.1.M ",
"XXJ.0.! ` 1.1.+.! ! ! ! d H 6X3X-Xo k `.S.x.U W.Y.S.S.U.R Q.U.S.S.z.U !.W.S.T.S.Y !.D.S.I   |.3X6Xe.- +.1.+.1.m.[.XX+X&X[.0.+.0.",
"&X[.s.+.m.).).s.! +.m.).i.K ,X{.(.. k  XD.x.Y Q.T.D.U.U.Y !.T.D.D.x.U `.W.S.U.Y.R !.U.D.I   n.{.-Xe.> ` ! M M +.m.).).).s.` 0.XX",
"+X).0.+.[.;X&XJ.+.J.<X5XoXP ,X{.(.# w <. . .t :. . . . .t :. . . .R t :.:. . . .t :. . .t o Z._.=Xe.v 0.1.+.! D 1.0.0.+.M +.).<X",
"XX[.s.+.m.XX[.0.+.[.1X5X[.P ,X_.u.j.k.k.k.k.k.k.k.k.k.k.k.k.k.k.k.k.k.k.k.l.k.k.k.k.k.k.k.k.<._.=Xt.8.[.J.0.` ! ` ! M M M s.XX;X",
"XX[.s.D +.m.m.+.1.XX1X<XL.K 4X,X:.W.`.W..X.XW.Q.W..X.XW.Q.Q.W..X.XW.W.W.Q..X.XW.Q.W..X.XQ.Y.R =X6Xt.q.XX[.s.1.m.J.m.1.D M 1.J.XX",
"[.m.1.! +.1.` D s.&X<X;XF.K ,X|.,.S.z.k.z.z.k.k.k.z.z.k.k.k.k.l.z.k.k.k.k.z.z.k.k.k.l.z.k.j.R {.2Xt.8.XXXXs.0.J.XX).0.D ! ` 1.s.",
"s.` D 1.m.1.M M m.&X<X&XF.K -X_.I.t 1 1 1 1 1 1 1 1 1 1 1 1 1 1 1 1 1 1 1 1 1 1 1 1 1 1 1 1 Z._.=Xt.8.+X+Xm.1.s.J.0.! ! 0.1.` ` ",
"` M D 0.J.m.+.! m.+X;X&XN.L -X_.I.. $ U I x 1 I x x x k 1 I x x x k 1 I x x x x 1 I x x 1   n.{.=Xt.8.+X&Xm.` ` ` M ` J.+X[.m.s.",
"s.1.! ` 1.+.! D s.).+X+Xv.L 4X-X#Xo k  XE.S.U W.D.U.U.l.U W.D.T.R.z.U W.T.U.Y.x.Y Q.D.S.I   _.-X3Xt.%.XX+Xm.` M D 1.J.;X<X&XXX[.",
").s.` D 1.1.` ! 1.s.J.).d.L 4X,X$Xo k `.T.D.U W.Y.Y.U.l.U Q.E.E.E.S.U Q.Y.T.E.S.Y !.D.S.I   _.-X3Xe.v m.m.1.! D 0.[.;X1X;X&X&X&X",
"[.s.` 1.).[.m.+.+.` +.s.$.J ,X{.I.. k `.T.T.Y W.T.T.D.z.U Q.E.R.T.S.U Q.D.Y.R.z.Y !.D.S.I   n.{.=Xe.> ! ! M M 1.+X1X1X;X&X&X&X+X",
").0.` s.;X;X).1.+.` ! ! 0 G 2X{.(.. k  XD.Y.R Q.E.R.S.z.U !.Q.R.R.T.Y !.U.D.D.z.Y !.U.D.I   n.{.-Xe.^ J.m.1.` s.<X1X;X&X&X&X+XXX",
"s.` ! m.;X;X).1.+.s.J.s.Q / {.n.a.  w D.j.j.k x.x.k.j.j.k x.x.k.k.k.k x.k.j.j.u.k x.k.j.t   ,.n._.y.G.&XXXm.1.s.&X&X+XXXXXXX[.).",
"` M ` ).;X;X).0.0.).&X).9.X., @ O X - } } } 7 Z s s h z 3 ) | | | ( ; z T T Z j , c l m = + 9 p e K.>X;X&XJ.1.+.m.m.m.m.s.s.0.0.",
"M M +.).+XXXJ.0.s.[.&XJ.1.b.^.v.o._ 9.v.F.F.v.&.b o.9.o.9.F.}.OX@X}.v.&.F.v.9.v.OXF.&.o.^.@X:X*X*X%X&X+XXXm.` M ! ! ! D D M M M ",
"0.+.1.m.J.m.1.! ` m.m.1.D +.1.+.! ! ! ! D ! D M M ! ` D D 1.m.).XX[.s.! 1.+.s.[.&XJ.1.1.m.J.J.).).).J.J.s.+.M M D ` 1.0.0.0.0.0.",
").m.0.+.+.! D D ! +.` D D 0.m.J.J.J.J.m.m.m.s.0.1.` ` +.+.! ! 1.m.s.+.M ! 1.J.+XXXm.+.! +.1.1.0.1.0.0.1.` D M ` m.).[.XXXX[.).).",
"+X).0.D ` 1.s.s.s.1.! M +.).;X;X;X;X;X&X&X&X+X).J.1.1.s.0.+.D D ` D M M D 0.m.J.m.0.! D 0.m.J.J.J.m.m.s.1.D D 0.XX;X;X;X&X+X+X+X",
"+X).1.! s.[.&X&XXXJ.0.D 0.&X5X1X1X<X<X;X;X;X;X+X).0.0.m.0.0.1.! M M M M ! 1.1.+.` ! D +.[.<X1X<X<X<X;X+XJ.` ! m.&X;X&X+XXXXXXXXX"
};
