/* XPM */
static char *out[] = {
/* columns rows colors chars-per-pixel */
"64 64 19 1 ",
"  c gray29",
". c #4E4E4E",
"X c gray32",
"o c #565656",
"O c #5B5B5B",
"+ c #606060",
"@ c gray40",
"# c #6D6D6D",
"$ c #747474",
"% c #7C7C7C",
"& c #848484",
"* c #8B8B8B",
"= c #909090",
"- c #959595",
"; c #9A9A9A",
": c gray63",
"> c gray66",
", c #AFAFAF",
"< c gray72",
/* pixels */
"o. X%:,:;*# O&;;;------*+ .#-,,;&&*=--=%@OXo#*;---*$X X+##@OOOOO",
".  .@*:;-*# X$=------=*$oO$-,<,>:;:::;;=&$+X+%=-=&#OX@$#+o.   ..",
"@O. o%==*%+ X@%&&***&%#Oo$:<<,,,>>>>::;;;*$+o@%&$+oO$-;&O   .O+@",
"*$O.X$==&@Xo@@+@#$$$#+X +*,<,>::;;;;::::--*$+O+@X O&,<>*O X+$*--",
"-*#.X#*=%oo%*&@.    .XX.o%:,:;;;;;;;;:::;-=*%+. .@=,,>;&O @=>,>;",
"-=&@X@&=%OO%=*# XoO+#%%@o#=:;;;;;;;;;;;;====*@.X$->,>:-%XX%,<,>;",
"==*%X+&-%+o@##O.#%*=-;-&++$=----;--;-----===&OX#;,,>:;-%XO*<<>;;",
"*==%X+%=%O  .  .$;<,:;;=$O+%*====*&&&******&#.O*,,:;::;%XO*,>:;;",
"==*%X+%*@. o##@O+*>:;-==&@X+$%%%%#@OO@#@+O+O  #;>:;;;:-%X+&>:;;-",
"--=%.O##X O&::=#o#%&&&**&#X.ooooX..  XX.      @*;;;;;;-%XO%:;---",
"%%$@ XOX X$><<>&+oO++@#$#O. .XoOO++@@@@@@OX   o#%&&*===%Xo$==***",
"OoX.     @-<<<>-$+X. .X.   O#$&=-------;-&#X.XO+++@#$%%#.X@%%$$#",
" o++o.  o&><,>>:=&%%%$@X  O%:,,,,,,>>::>:;&@o$**#O. .O+X .XoX.  ",
"@&;=$+. o&:>:::;;==--*%+. @-<<<,,>>::::>>;=%+%;;&+  o%*%$##@+oX ",
"%:<>=$+.X#=:;;;;;---;-&@. #:<<>::;;;:;;::;=&+#*-%OXo+-,>;-*&%%#O",
"%;,:;*$+.o$=---;;-====&@ .#->::;--;;;-;:;-=&@+$%OX+@+*,,>::;;-&@",
"#&;;--&$oX+%*********=&@ .+%==**&&******&*=*#o+#.#&$+&::;;;---%@",
"o@$&*&$+. X+@@+++@##@#+X  XO@@++OO++@+++O+@@O.XO #&#O$-----==*$O",
" .O@#@o.   ..... .XooX.  .O++OX.  .O+@++OoX.   . +@+.+$%%%$$$#+.",
"OX...  oo..o+++@+OO+++X .@%=*%$#+X+%---=&$@oX. .oOOo.XoOOOooOoX.",
"&$O. O$&%+o#;>:;-===*%+ @-,<>;-*%+#><<,,:;=&$+X+&=*%OXX. +$&&*%$",
"-*$OX$;:=#O$,<<,>::;-%+X&,<,>:;-%O#><,>>:;;-*@O$>,:*O+##o%:,>:-&",
"--&#O*,>-#O$,<<,>::;-%OO;<,:;;;=%O#:>>:;;---*#+$,<:&O$=*@&><<>-*",
"==&$+*>:=#o#:>>;;--;=$O+->:;;--*$O@=;;;---==*#+#:>-%O%;=@$;,>:-=",
"*=&#+&;-*#O@&-;;;---*$OO*;:;--=&#Xo$*======&$Oo#-;*$X%;=@@&>:;-=",
"==%+X#%$#o X+#&;;---=$OX%-;---*$XXO+##$$$$#+oO$*--&#.$-=#O$-;-==",
"&$+X.O@++X.XXo#======&+.@%&**=%+O##OXXo+++o o$=;--&@ #&%@XO%&**=",
"@o.O@@@#$$##+o+%%%&&*%+ XO@$%%#o$-*@  O@@@Oo$=-===%+ O#@o..O@#%&",
" o%:,>::::;=%+Xo..XOOX  +@+X.oX.#*=$X+*>;*$+@$%%%%#X .X.XO+OX..X",
".$:<<,>:::;-&+....XOOo.X%&$XO#$@+@$@.#;<>-%OoO+++OoXoOOX#*-&$#+X",
"o&,<,::;;;;-&+.+%%&&%$+O$&#O%;;&@OoX #-,:=$o@$%$#@@#$$@O&,<>-*$+",
"o%>,:;;::;--&OX%,<<,>-%+++O+:<>-&$+  @*:;*#+*>,>:**=-*#+-<<>;-%@",
"o%:>;-;:;-==&Oo%<<<,>;*%@X.@>,>;-=%+.#*;-*#+-,,>:-=-;*#+->>;--%@",
"X@&;;------=%OX%><,>:--=$o.@;::;;-&#X#*=*&#O*::;;-=--*#+=:;--=%+",
".o@$&****&&%@..$:,>:;;-=$OX@=;;;-=*$o+$$#@O.#%%%%%%%%$+O&=---*#X",
"oOOO@#$$##+o  X#:>:;;;;*$o.+&***&&%#XXo.    XOOOooOOOX .#$%&&#o ",
"#**#X..     @$#@-:;;;:;*#o.+#@+OOoX. XOX XoXoOOOoXXXo.  .XoOo.  ",
"%:>&@OX    X%&$+*;;;:;-*#+O+oXoO+o. X##O+$$+$*=*%#++++OXXoOOo.  ",
"%:<;&$@X.o+@%%#O&;;;;;-*#@+@+#%&%$@+O@@+%-&#*,<:-%@@$&&$%%%$$#+o",
"$;,:;=$OO%&$@@Oo%=-----*$+O@*><,>;*%@X.O*-%#-<<:=$O@*>,>>:;--=%@",
"$-:;-*#o$:,-$+.X$%%%%&&&$o.@,<<,>;--&@oO%%@+;,,;*@o#:<<,,>:--=%@",
"#*;-=&@X&,,:=%@OOOooooOoX .#><,>:;;:-&@O+oX@:,>;*@O$:,,>::;;-=%+",
"O#%&=&+X*::;-=%#X        o+#;>:;;;;:;=%+. o%>>:;=@O$:>::;;;;-=$o",
"XXO#%#o.%**&&&%$O.o@#@@@@$##=;;;--;;;=%@o.@*::--=@O$-;-;;;;--*#.",
"#+o... .@@+ooOO. .#-;-==*&#+&=-====-;-%@++@%**&%&@O#****==-;=%+ ",
"=%@Xo++OXXXXoO+O.o#*****&$+o#%%%%%%%%&#O++++@+ooo..O+O+$*=-;*@O@",
";*#O$&&#XO$&&%$#OX+@@@@@+O. oO++OOOOOOo XoooOoooXXXoX  O$&&&#o@=",
"-&@O*:;%O%><<:*$OooX...X...XX.           .+$$%&&%$#@+OX.+@@O O&>",
"=*#O$=*@O*,<,;&$@$$+X@&===**&%#+XO#$$$#@oO%>,<,,:;-*%@oXoX   #=:",
"=*#.O$$O+=,>:-&$+&*@X#=>>,,>;-*$o$->;=*&@+&<<<,>::;=*#+$%$+. +%=",
"*$+XO+o.#;>:;-*$O$$+ +%&-:>:;;=$X$><:;;=#+%<<>:;;;-==#@%=&@.Xo+#",
"#o.+$+  $;>;;-*$XoOXXooo@%****%@ #=;--;=$+$::;;;;----$+#%@XX@+oo",
"o .@%$OX$-:;-=*#  O$%%#OoO+OO+o  O$&&-;=$O@=--====--;$ooo o%-*$#",
"#+Xo+OX.#&--=-*#.@=>>:-%@oXo+++OO++@%-;=#o+%&&&&***=-$o .+%:>;=*",
"&#o.++oX+#%&**%@O*<<<,:-$OO%=*&&&%+o$*=%O.o@@@@@@##$$+X.@*:,:;;;",
"*#o+&*$OOoO#$$+o@:<,>:;=$O#:<<,>>-#X#$$+  XOX    .XXX  +-,,:;;;-",
"&@o#::&+OoXX.   $;>:;;-*$X+-,,,>:=#.XX.  .+$@oo@#$%%$+o#>,:;;;-=",
"#oX$::&+O#%#OOOO#*;;;-=&+ o%:>::;*$O##+.++@@O#&;:::;=$+#;;-===*&",
"o o&::&@@&;&@$%#+#&===*%..O@&-;;;=$@&&#+%$+O@*><,,>:;%+O$$$$##@@",
"  O&-=%@#*;%+$&$Oo@$%%$+ O@O@%=-;=$+%$@$-%+O&;>::;;-=$o XXX..   ",
"@O+$%$+Xo$$+.O+OXXXX.X.  Xo..+$&=*#X+O#*;%++$%%&&&%%#O  .o+@@@@@",
"&$@OOX..XOo..@$%%%%$$$#@+ooOOXX+$#O X+%-=$OXO++@+@@+o. o$&*==*&&",
"-&@.o+###+X O&:::::;;;-&%++#@O..o.  .@$%$@X.@$%%%$$#+..@=:::;---",
"-&+X#*;;=%@.@;<,,>>::::-&@@$@@+X    X++OoX.O*>,>>>:-%oX$;:;-===="
};
