/* XPM */
static char *out[] = {
/* columns rows colors chars-per-pixel */
"64 64 94 2 ",
"   c #111011",
".  c #1B1516",
"X  c #1C1A1C",
"o  c #2B1D1A",
"O  c #212224",
"+  c #2C2423",
"@  c #262729",
"#  c #2A2C2D",
"$  c #372521",
"%  c #2D3032",
"&  c #313437",
"*  c #3C3736",
"=  c #393B3E",
"-  c #402C26",
";  c #49332C",
":  c #563B2E",
">  c #473E3C",
",  c #66493B",
"<  c #3F4247",
"1  c #474545",
"2  c #494A4C",
"3  c gray30",
"4  c gray31",
"5  c #544641",
"6  c #5F4E47",
"7  c gray32",
"8  c #555454",
"9  c #575656",
"0  c gray35",
"q  c gray36",
"w  c gray37",
"e  c #6D5245",
"r  c #7D5B4A",
"t  c #6D5B55",
"y  c #756157",
"u  c #78685F",
"i  c #616060",
"p  c gray39",
"a  c gray40",
"s  c DimGray",
"d  c gray42",
"f  c #6E6D6D",
"g  c #6F6F6F",
"h  c #756B67",
"j  c #727272",
"k  c gray46",
"l  c #787777",
"z  c #7A7979",
"x  c #7C7C7C",
"c  c #7E7E7E",
"v  c #876454",
"b  c #887066",
"n  c #967A6C",
"m  c #827E7F",
"M  c #9D8375",
"N  c #AE8B79",
"B  c #C99978",
"V  c #808080",
"C  c #828281",
"Z  c #848484",
"A  c gray53",
"S  c gray54",
"D  c #8D8D8D",
"F  c #909090",
"G  c #939393",
"H  c #959595",
"J  c #979797",
"K  c #9A9A9A",
"L  c #9D9C9C",
"P  c #9F9F9F",
"I  c #A19387",
"U  c #B19182",
"Y  c #B69785",
"T  c #BCA08E",
"R  c #A2A2A2",
"E  c #A5A5A5",
"W  c gray66",
"Q  c #ACACAB",
"!  c #AFAFAF",
"~  c gray70",
"^  c #B8B8B7",
"/  c #D3A78C",
"(  c #C3A998",
")  c #DEB397",
"_  c #C7B5A5",
"`  c #D9C0AD",
"'  c #C6C5BD",
"]  c #E7C6AE",
"[  c #EACEB9",
"{  c #F6D6BB",
"}  c #D8D6CD",
"|  c #F4DBC3",
" . c #EBEBE8",
".. c #EEEFEB",
/* pixels */
"2 2 3 p Z L K H D k 8 3 a Z G G G H G G G D Z d 9 i x K ! ^ ! W P K P R R L K G A z s 9 0 g A G G S z a 9 0 f k d w 8 3 2 2 2 4 ",
"0 4 2 9 l D F D C s 7 4 w k C Z A S S S C l s 0 q x R ~ ~ ! E L D S H R R P K K K D x a 0 i j C c d q 0 p c H G z 0 2 2 2 4 q i ",
"j q 4 7 g S F A g 0 8 w a p a d j k k j d w 7 4 s F ! ! L H S j i w j Z D G K P K H D x a q w a i 4 7 s F ! ! P c 9 2 7 i j A F ",
"A d 7 7 s A F C i 8 d C Z j 0 4 4 4 4 4 7 8 7 4 i Z P F p p a f w w a d 0 a Z K K H F S c s 9 3 3 9 j J Q ! E H x 9 3 s D R Q E ",
"F C a 8 p V D C p 0 j S D z 0 3 7 9 0 i f l j w q k A l 8 2 1 1 1 1 1 1 < 7 j S F F F F D k 9 3 w x J Q ! W P F j 7 9 V Q ~ ! W ",
"F S z 9 w c G C a 0 p j k a 7 0 g x Z S F G D k i s f w 2 = & # # # # % & < 9 j C Z A F S f 8 q x P Q Q W P K F j 7 i F ^ ^ W L ",
"F F x 9 w l D C a 4 3 7 7 3 3 i Z R ! E L K J Z a i q < # # % & & & & % @ @ & 2 q a k Z x w 7 g K ! Q R P R P G j 7 p F ! Q R K ",
"F D x 9 w l S k 9 2 3 w a i 0 q z P Q R K H F Z a 4 < % % % = 4 9 9 4 = & % # % < < 4 i 0 3 0 C R W P K K P P F j 8 a S W R L K ",
"G F x 8 0 f k w 3 7 d S H D k w a c S D S S Z j q > & % & < d L Q ~ L f < = % O & * * 1 2 2 0 x J P K K K K K F j 7 p Z R L J J ",
"Z x f 4 7 w q 4 3 p D Q ~ Q D d q w a s a a p 0 3 & % & & 9 H }  ...} P 8 = & @ % = * * > 1 7 s c A S D G G G D j 7 q x H G F D ",
"i q 8 2 3 4 3 2 0 x W ^ ^ ! L c p 9 4 2 1 > 1 3 < % % & & d E ' ..} } ~ i = & % # & * # # * 2 q p s f j z V Z c s 4 9 f Z Z x x ",
"8 0 9 7 3 2 2 4 g J ~ ^ ! Q R G c a 2 * % % = < & & & # % d W '  .} } ^ p & % & % # # @ @ # * 8 p i 0 8 9 w a a 9 2 4 0 p w 0 0 ",
"j C x s q 3 2 7 z L Q W E E R K C w = @ O # & & % & & & < d L ^ ' ' ^ Q p < = & & % @ O @ @ @ > q i 7 2 2 0 j k s p i i q 0 4 3 ",
"J Q R A g q 3 7 f F R P L L K G g = @ @ @ # % & & & & 1 f Z L Q F F W ! x a 8 & % % # @ # # # % > 4 7 3 7 d G P G S Z c k g d p ",
"P ~ E J Z g q 7 q l F J J J J D i & # & & & & & % % & 7 H Q ^ ^ j x Q ' Q D p & % % % % & & & % # * 3 q w g K ! Q R L J F D S x ",
"F R P K G C g 0 7 p x D F F G A i % @ # % % % & % % & 2 A P ~ ' H P ^ ^ R V 9 & % % % # % % # @ O & w j s d G W W R P L J J H C ",
"k A F F F C g 0 3 8 a k z l k j 0 & @ @ @ O O O @ @ @ = s C J E J P R K S a < # @ O O X O @ O O @ 1 j V s a A L K J J J G G F z ",
"q a k x l s 0 3 2 3 8 0 0 9 9 8 3 1 * & % @ X X @ # + % 9 j l d 3 7 a z l 8 & + # + X . O # # % * 7 f j i q j A S S S A Z Z x d ",
"3 8 0 w 0 4 4 3 3 2 3 7 7 7 8 7 4 3 3 3 2 = @ % 9 u 6 ; ; > 1 * + + * 5 1 & * 6 t 6 * # & > > < 1 8 w w 8 4 q s f f d a a a i 0 ",
"w 7 3 2 3 9 p a 0 7 0 f z z z l j g j j g w > 6 N ( Y b t t t y y y y t t t b Y T n y 7 0 0 7 4 w d f s w 7 7 7 8 8 q i a s s i ",
"x a 8 3 i x D A f 0 a G Q ! W P K J J G S f 5 e T ] [ ] ` ` ` ` ` ` ` ` ` ` ] ] ) N b h l f 0 q x J K D k 0 9 0 8 7 f A G G G A ",
"D x p 9 k L E J l w s K ^ ^ ~ Q E R P K S a 5 r B ] { { | | | { { { { | | | { ] ) N v y z k i a F ~ Q K l q d z j p A W ~ ! R J ",
"G Z j w Z W W K l w s J ~ ~ ! E R L L K Z q t n B ) ] { | | | { { | { | | { ] ) / B n y j k a a D ~ Q G j p V G Z d A W ~ ~ E H ",
"F Z k p Z P P G k q p S R E P K J G J H x 8 u Y B / ) ) _ _ ] { { { { ] _ ( / / / / Y b h g i p Z R P S f p A K A a k J Q E P H ",
"F Z d w z F F A g q q j A G J K J H H G z 0 j ( / / / U v n ( [ { { ] ( b v M T / ) / b i w 0 a Z J G C a q Z J A a s Z R P K G ",
"S l w 7 a k j d 0 3 4 0 p k D K H G G G C p h U / / / U 6 h T [ { [ [ _ y e M ( / / Y u 4 0 f Z G H F x w 9 x G Z a q k F H G F ",
"f w 8 7 q p p p q 8 8 8 8 i c D D D D F S j 0 u n N T T e l _ | { { { ` u y N ( N n b 7 4 d A H J H D l 0 7 j c k w 7 q l c A S ",
"9 8 p g g g j z x k j s q 0 d l k z x C x p < % ; r Y _ M I ` | { | | [ I N T T r * * > 0 c F F D D A g 9 3 w s w 8 4 7 q p s k ",
"q c P ! W R R R R L G Z d 9 7 7 3 4 9 0 3 % X   . ; n ` ` ] [ { { { { { ] ` ) N ; X X O = q j z z z j i 4 3 7 7 4 0 p a w 9 7 7 ",
"l P ~ ^ ! W R P P L J S f 8 3 7 7 8 0 7 * O X X . $ e N ( ] { { { { { { ] ) N r $ X X O O & 4 i p i q 9 9 0 q 0 0 k F H Z k f p ",
"Z Q ^ ! R R L K K K J S f 8 9 j V Z V 0 @ O @ # # + - , b U / / / / / / U b , ; + @ % # X # 7 g k f s d j k j p p D ! ~ E G S k ",
"c E ! R K K P R K H H S d 7 a H ~ ~ J 9 O O % = = % o o - , v v v v v v , - o o % = = % O @ 4 A R H S S F F C s d L ^ ~ E K G x ",
"x L W L H K P L J G F S s 8 s L ^ W j & @ # & < 2 < & + o $ : e e e 6 5 $ o + % < 2 < & # X % s J K G F J H C s d K W E K H G x ",
"s Z J K H H H H H G F Z a 7 a H ! G 4 O @ # & = 2 2 2 * + > h I I I I n * + & < 2 < = & % O @ 2 z G G F H G C s s G P K H H F x ",
"0 s k Z S D D D A Z V g 0 3 p D L k = O # % % & < 2 2 = + 5 A ' } } ' I > # = 2 2 < & % % # O # 7 l c c c x g w p A G H H G S g ",
"q q w s g k l j g s w 7 2 3 i A A 8 @ O # % % & = < < % o ; h Q } } ( h ; + % < < = & % % % O X # 3 0 w w q 7 3 9 j l V A Z g 0 ",
"Z Z d 9 7 7 7 4 4 3 2 0 s d a d 0 # X O # % % % & & % + + ; 5 h ' _ z 5 ; $ + % & & % % % # O . X % 1 7 8 8 3 2 3 7 0 q i q 7 3 ",
"P R Z a 0 7 2 2 2 2 3 s V z p 2 # . . X O O @ @ % % @ o $ : > e _ ( u : : - o @ # % # @ O X .     @ < 8 w w q 9 4 7 9 0 0 8 3 2 ",
"R ~ J C j p 8 3 7 0 w j c k w * X   . .       X @ + X o - : : 6 _ T y : : - o o O O X .     . .   X * 8 s k x l f j k k g f a q ",
"L ! R J D k w 9 d z k d d a 8 = O X X X         O X . o ; : : e _ T y : : ; o . X X .       X X X O * 7 j F R R L L J G D D A l ",
"J R L J D k q a D R H z a 9 4 3 = O . O @ + o - 1 - o $ - : : e ' ( u : ; - $ $ - > * + o + O X O * 2 0 x E ^ ~ ! Q E P H H F x ",
"F K J G A f 9 k R ! E F x a 0 0 2 # + 4 x n y 6 1 $ o $ o - ; 5 P I t ; - $ o $ $ > 6 y b l 8 # = 0 0 i Z W ~ ! W E R L J H F x ",
"l Z S F A s 8 x P W P J F c f q 1 & 5 M ] ` Y t # X X o . $ - ; h y > - + o o o . $ e Y ` ` I 6 9 g w p Z E W E R L L K K H D l ",
"q a k Z l w 4 k F G F D S Z z a 2 > t T { { T e + X X X . o $ - t 9 ; $ o . . X . o 6 T [ { ( y i k i p C L P K L K K K H G S j ",
"0 9 0 w 0 4 3 a j j s a s s p 9 1 1 t N ] [ Y , + O O X . o $ * a i > $ + . . o o + 6 Y [ ] Y t w j i p x G G F G G G J J F C a ",
"g i 7 4 8 8 8 0 0 9 7 7 9 q 0 4 2 4 9 b T ( M 5 O X X . X $ - * q q 1 - - o . . X + 5 M ( T b 6 7 q 8 0 s j g k C D F H K S g q ",
"Z d 0 p j k s 8 7 w s f f d s q 7 9 0 t b b y > X     . o $ ; 5 0 q 5 - - o .     X > y b u 9 3 3 4 3 7 9 8 4 9 d C S D D z w i ",
"A d q x G G x q a Z L R J A z a 9 8 9 7 3 5 > + X . . o $ - 5 g g z h 5 - + o X . X + > 8 q i s s a i w q 9 4 3 0 d k k d 0 0 k ",
"A d w x J H z w l R ^ ^ W G x s p p w 7 2 4 1 % # # @ + + > h Z j x Z j * + @ @ # @ % 8 l S G K H D Z c k s q 7 7 0 0 9 4 3 a S ",
"S g 0 a V C a q V W ~ Q P D x s g V k q 0 f p 1 1 1 < = & i D Z i f G L 9 = = 1 2 < < k E ^ ^ ! W R L H S x p q p a w 7 2 3 s A ",
"C s 7 0 s s 0 i A E W P J D x a f Z l 0 9 f a 1 2 0 q 0 4 m L x 0 k R ~ z 8 4 i q 1 > z Q ~ Q E P P L H F Z s s x Z z i 3 3 q g ",
"a 0 0 p i 7 3 a F E R K J F c p w s p 7 4 0 4 * * 5 5 3 q H P j 7 j L Q D 0 1 6 5 * * f P W P L K K J G G A d s x A k q 4 0 0 0 ",
"4 3 i k s 8 3 d F R P K H F c w 3 8 0 w w 7 * - ; ; ; ; 5 m A i 3 a Z F l 5 ; ; ; - - 6 V J J J J H G H J D d w a d 0 8 p k f i ",
"4 4 i j f q 7 s A K K H G F x 0 3 q l S V w > ; , , , : - 8 s q 7 q k m 6 ; ; , , : ; ; w Z D D D F F G J D d 8 7 7 7 a S K F c ",
"p 8 7 q q 8 4 p l S F F G D l q w Z E Q G i 5 , r r e , ; 8 j l s s f l 5 ; : e r e : ; 1 p l x c C Z Z S Z a 7 3 0 j D E E K G ",
"d 0 7 a d i 9 q p g x Z A x s q k E ^ ! D q , r v v r e : p A J F Z j f 5 : e r v r e 5 * < 0 w q i p a s a 9 4 0 z J W Q P K K ",
"d 0 p A F x p q 9 9 i s d i 8 q Z Q ! P x 8 6 r r r r e , z L Q W H l w 1 5 e r r r e , > = 1 3 4 7 0 q 0 8 3 7 g P ! Q P K K K ",
"p 9 f K R S a q 0 0 0 7 3 3 3 w Z P R K V q 5 , e e , 6 h K Q E P F j 9 7 5 5 6 e e , 5 > 2 0 s k z V Z V j i q x W W P J J J G ",
"8 8 k L R S s q d c l p w i w p l D J J D j q 6 > > > 9 Z R R P K D k w s i 4 > 5 5 5 1 2 i c H R E E P K S f i k G G F S S S Z ",
"2 9 V L P A d a x H D g f x k a p k A D D C g 9 > 1 3 0 c G K K K F l a c x i 7 i i 7 3 q x L ! ~ Q Q E P F j q w g g g f s a p ",
"3 q c F D x a s V G Z a s z z a 9 q s j l k s 0 3 q p q a z D G J F k i k j s j D Z s q j D P R P K J H F Z s 7 3 7 7 8 7 7 3 3 ",
"q i g l j p 8 8 d j a 7 9 i i 0 9 9 9 8 8 8 4 3 3 7 8 4 7 i j C D A f 8 q q s Z J Z s q s l z c C C c z k a 8 2 3 8 q a s s s s ",
"k a q q 8 7 7 7 0 0 7 3 w j x c c c z k k k f a w 9 0 q 0 7 8 i j d q 3 7 w k D F x p 8 0 i p a a a s a w 8 3 3 w z A D F F S Z ",
"C s 7 8 w s d d p 9 3 7 j G P P P P L J J J D V k w p d p 0 4 4 9 4 2 2 3 p j x l d 0 3 q f l x x l j j s 0 3 7 g G P P P K H G "
};
