/* XPM */
static char *out[] = {
/* columns rows colors chars-per-pixel */
"64 64 220 2 ",
"   c #1B1B1B",
".  c gray11",
"X  c #1F1F20",
"o  c #232323",
"O  c #282929",
"+  c #2B2C2B",
"@  c #2D2D2B",
"#  c #2B2D2C",
"$  c #2D2D2C",
"%  c #2D2D2D",
"&  c #2F2E2E",
"*  c #2A2F31",
"=  c #2B3133",
"-  c #323232",
";  c #333233",
":  c #323536",
">  c #343434",
",  c gray21",
"<  c #373737",
"1  c #383737",
"2  c #32393C",
"3  c #393838",
"4  c #393939",
"5  c #3A393A",
"6  c gray23",
"7  c #383B3D",
"8  c #3C3C3C",
"9  c #3F3D3C",
"0  c #3E3E3E",
"q  c #3F3E3E",
"w  c #3F3F3F",
"e  c #373F42",
"r  c #414141",
"t  c #434343",
"y  c #444141",
"u  c #464342",
"i  c #444344",
"p  c #444444",
"a  c #444545",
"s  c #464646",
"d  c gray28",
"f  c #4A4747",
"g  c #434A4D",
"h  c #484848",
"j  c gray29",
"k  c #4D4B4A",
"l  c #4D4B4C",
"z  c #4C4C4C",
"x  c #4E4C4D",
"c  c #4D4E4F",
"v  c #4E4E4E",
"b  c gray31",
"n  c #514E4F",
"m  c #495053",
"M  c #4F5050",
"N  c #4D5559",
"B  c #4E5558",
"V  c #505050",
"C  c #515050",
"Z  c gray32",
"A  c #535252",
"S  c #545151",
"D  c #565252",
"F  c gray33",
"G  c #555454",
"H  c #555555",
"J  c #545556",
"K  c #545656",
"L  c #555656",
"P  c #565656",
"I  c gray34",
"U  c #595657",
"Y  c #50575B",
"T  c #56575A",
"R  c #51585B",
"E  c #55585A",
"W  c #52595C",
"Q  c #54595C",
"!  c #555B5D",
"~  c #545B5F",
"^  c #575D5F",
"/  c #585859",
"(  c #585959",
")  c #5A5858",
"_  c #5A5A5A",
"`  c #5B5A5A",
"'  c #5A5A5B",
"]  c #5B5B5B",
"[  c #5C5959",
"{  c #5A5B5E",
"}  c #5B5D5E",
"|  c #5B5D5F",
" . c #5D5D5D",
".. c #5E5D5D",
"X. c #5C5D5E",
"o. c gray37",
"O. c #5F5E5E",
"+. c #5F5F5F",
"@. c #655E5E",
"#. c #585E61",
"$. c #5F6060",
"%. c #596164",
"&. c #5D6265",
"*. c #5E6366",
"=. c #5C6468",
"-. c #5E6568",
";. c #5E666A",
":. c #606060",
">. c #626262",
",. c gray39",
"<. c #646364",
"1. c #646464",
"2. c #656565",
"3. c gray40",
"4. c #696262",
"5. c #6A6262",
"6. c #6A6363",
"7. c #6B6363",
"8. c #6C6464",
"9. c #6C6564",
"0. c #6D6564",
"q. c #6D6665",
"w. c #6E6665",
"e. c #6E6766",
"r. c #6F6766",
"t. c #6F6867",
"y. c #616669",
"u. c #646568",
"i. c #6A6768",
"p. c #62686A",
"a. c #64686B",
"s. c #60686D",
"d. c #62686C",
"f. c #626A6E",
"g. c #686868",
"h. c #696868",
"j. c #6A6969",
"k. c #696A6D",
"l. c #6E6B6C",
"z. c #6B6C6C",
"x. c #6A6D6F",
"c. c #6C6C6C",
"v. c #6C6D6D",
"b. c #6D6D6D",
"n. c #6F6C6D",
"m. c #776F6E",
"M. c #666D71",
"N. c #697175",
"B. c #6A7378",
"V. c #6D767A",
"C. c #6F777B",
"Z. c gray44",
"A. c #737171",
"S. c #727272",
"D. c gray45",
"F. c #747474",
"G. c #757777",
"H. c #777777",
"J. c #797170",
"K. c #7C7373",
"L. c #7B7473",
"P. c #7C7474",
"I. c #7D7575",
"U. c #737B7F",
"Y. c #797979",
"T. c gray48",
"R. c #7B7B7B",
"E. c #7C7B7A",
"W. c #7C7C7C",
"Q. c #7C7D7E",
"!. c #7E7E7E",
"~. c #847B7B",
"^. c #757E82",
"/. c #778085",
"(. c #7F8182",
"). c #798288",
"_. c #7C868B",
"`. c #838383",
"'. c #848484",
"]. c #848585",
"[. c #858686",
"{. c #868686",
"}. c #8A8182",
"|. c #8C8786",
" X c #80878B",
".X c #818A8F",
"XX c #8B8B8B",
"oX c #8F8A89",
"OX c #8E8F8F",
"+X c gray56",
"@X c #948F8E",
"#X c #8D9296",
"$X c #889398",
"%X c #8D989F",
"&X c #909090",
"*X c gray58",
"=X c #959595",
"-X c #9B9494",
";X c #9E9796",
":X c gray60",
">X c #9A9A9A",
",X c #9B9C9C",
"<X c #A19998",
"1X c #A29A9A",
"2X c #A69E9D",
"3X c #919CA2",
"4X c #9FA0A0",
"5X c #98A1A8",
"6X c #9EA5AB",
"7X c gray63",
"8X c #AAA0A0",
"9X c #AFA5A4",
"0X c #A7A8A8",
"qX c #A1A8AE",
"wX c gray66",
"eX c #AFAFAF",
"rX c #B3A8A7",
"tX c #B5ACAD",
"yX c #BBAFAF",
"uX c gray72",
/* pixels */
"P v j Z W.7XeX7X>XXXb.j ] '.>X>X>X=X=X=X=X=X=XXX:.j v b.=XeXeX>X'.'.XX&X=X=X&XW.3.] Z P b.XX>X=X=X=XXXF.Z j Z :.b.b.3.] ] ] ] ] ",
"v j j v 3.XX7X>X=XXXb.j Z F.&X=X=X=X=X=X=X&XXXF.P ] F.=XeXuXeXwX7X>X7X7X7X>X>X&X'.F.:.Z :.W.&X=X&X'.b.] Z 3.F.b.:.P v j j j v v ",
"3.] v j P W.&X&XXXW.:.j Z 3.W.'.'.XXXXXX'.W.b.] P F.7XuXuXeXeXeXwXwXwXwX7X7X>X>X>XXXF.:.P 3.W.'.F.:.P ] F.=X>X'.] j j j v ] :.3.",
"XXF.] v Z F.&X&X'.3.Z P 3.3.:.3.b.F.F.F.b.:.Z j :.XXeXuXeXwX7X7X>X>X>X>X7X7X7X7X=X=XXXF.:.] :.3.Z j ] '.eXuXwXXX] j Z :.F.XX=X=X",
"=XXXb.v Z b.XX&XW.P P W.XX'.3.v j j j j v Z Z v P W.7XeX7X>X>X>X>X>X>X>X>X7X7X7X>X=X&XXXW.:.v j v 3.&XeXeXwX>X'.] j 3.&XwXeXwX>X",
"=X&X'.3.Z 3.'.&XW.] ] W.&XXXb.j Z P ] :.b.W.W.3.P b.&X,XOX` A A A A >.x.x.x.(.>X&X&X&X&XXX3.v Z F.=XwXeXwX7X=XW.Z Z W.eXuXeXwX>X",
"&X&XXXW.Z :.'.=XW.:.P 3.b.b.] v b.W.XX&X=X>X=X'.:._ o.S U |.|.|.}.Y N..X#.M.*.Q.=X&X&X&X'.] Z b.>XeXeXwX7X>X=XW.Z ] XXuXuXwX>X>X",
"XX&X&XW.Z :.W.&XW.] j j v j j v F.>XuXeX7X>X>X[.b u 0.<X2XrX1X@XA./.qX5XW ).=.R G.XXXX'.b.v ] XXeXeX7X>X7X7X>XW.Z ] XXeXwX7X>X>X",
"&X&XXXW.Z :.W.XX3.v j P b.b.3.] :.XXwX7X>X*X1.) w.8X2XoXoX;X<X;.U.3XtX$XY ).;.M.-.K :.] j j b.>XwX7X>X>X>X7X=XW.Z :.'.wX7X>X>X=X",
"=X=X&XW.v ] b.b.Z j ] '.7X7X&Xb.P b.W.'.`.2.L.oX<X<X8X|.j.1 % e $X6XU..XY ).;.B.N.7 r j j j 3.XX>X>X>X>X>X>X=XW.Z ] W.7X>X=X=X=X",
"W.W.F.3.j Z ] Z j Z F.wXuXuXwX'.:.P ] +.M J.rX2XoX|.A.k   o O Y $XqXs._.W ).;.N.N.W ! r j j P b.W.'.'.XX&X&X&XW.Z P F.&X&XXXXXXX",
"] P Z v j j j j j 3.=XuXuXuXwX=XF.:.Z a m.-XoX2XA.9 X o + % : /.3XqXs. XW ).;.B.N.2 I.i.i Z ] :.:.:.3.b.F.W.W.b.v Z 3.W.W.F.F.b.",
"j P :.:.P v j j P '.wXuXeXwXwX7X&X'. .n.<XoXoXj.% X + % @ $ e _.6X%X~ .X~ ).;.B.V.e M.<X| :.XXXXb.] v j v ] :.Z j v Z P Z v j j ",
"3.'.>X&XF.:.v j P '.7XwX7X7X7X>X>XXX..|.rX-Xj.O O % % % $ * ;.%XqX#XY .X~ /.%.B.V.%.=.1X~.X.:X>X'.:.j j P W.XXW.F.b.b.3.:.P Z j ",
"W.7XuXwX&XF.:.v Z b.&X7X>X>X>X>X>XT.@.1X@XI.O O % % % $ $ * M.3XqX#XY .X~ /.%.B.V.=.%.E.2Xn Y.=XW.] Z P :.=XeXwX>X=XXX'.W.W.b.] ",
"W.>XeX7X>XXXF.:.v P F.&X=X=X=X>X=X[ oX@X|.t X % % % % $ + : B.3XqX#XY .X~ /.%.B.V.=.=.I.@X}.C W.] Z :.3.:.XXeXeXwX7X7X>X>X=X'.3.",
"b.'.>X>X=X=X'.F.P Z :.W.XXXXXXXXS.&.8X1XA.o + % % $ @ @ + m $X5X6X^.W  XW ).;.B.V.;.U.#.;X<Xx +.v b.'.F.:.'.7X7X>X>X>X=X=X=XW.3.",
"P 3.F.'.XX'.F.:.v j Z :.3.3.:.:.3 oX;X1Xk o % % % @ @ @ + N %X5X6XU.~ _.Y ).;.B.V.;./.W <X;X~.5 j b.'.b.] F.=X=X=X=X=X&X&XXXF.] ",
"j v ] 3.b.3.P v j j j v v v v v & @X@XE.X O % % % @ @ @ + N %X5X6XU.~ _.Y ).;.B.V.;._.2 D -X}.; j :.3.:.v :.F.W.W.W.F.F.F.b.:.v ",
"] Z v v v j j P P v v P :.:.:.$.f @XoXj.X + % % + @ @ $ % N %X.X).=.N _.Y /.%.B.V.;.).* t @X|.y F ] ] P v Z P ] ] ] P P ] P Z v ",
"'.F.] v j ] F.'.W.:.P b.>XwX7X .K.tX8Xt o $ $ + + $ % % % N ^.s.f.;.g #.g ^.%.B.V.;./.* D 9XtX0.,.&XXXW.] Z Z v j :.F.'.'.XXW.F.",
"=XXXF.] Z F.>X7X&Xb.] F.eXuXuXg.K.9X;X9 o $ @ @ $ % % % % N =.^..X X^.C.W Y g s.s.;./.* k 1X9Xq.!.eX7XXX] :.b.b.P W.7XeXwX7X=X'.",
"=X=X'.b.] XXeXwX=Xb.] F.eXuXuXg.K.-X|.1 o $ @ @ $ % % % % N B.M.s.). X.X.X_.M.N m N f.# t oX1Xq.`.uX7X'.] F.&XXX3.'.wXuXuXwX=XXX",
"&X&X'.F.:.XXwX7X&Xb.P b.7XwXwX .K.;XoX1 o $ $ $ $ $ % % % N %XM.e g Y N. X/..X_./.s.=.: D oX1X0.Y.wX=XW.] W.>X&X3.F.>XeXwX7X=X&X",
"XX&X'.b.:.'.>X=XXXb.] 3.'.=X>X .I.yXrXt o % % % $ @ $ % % N %X3X Xm 2 t g N C.V..X X.Xs.A.rXyX0.Z.>XXXF.Z W.>X&X3.3.'.wX7X>X=X&X",
"&X&XW.:.Z b.W.F.b.P j Z :.b.'. .K.1X@X1 o % % % % $ $ @ # N %X5XqXC.Y M.e t e e =.s. XN.=.@X8Xw.Z.=X'.b.v F.=X&Xb.] F.=X>X=X&X&X",
"'.F.:.Z v ] 3.:.:.Z v Z Z P b.I K.-X|.1 o % % % % % % $ + N %X5XqXU.~ _.Y V.g m e 2 m g D |.<Xr.Z.=X'.3.j b.'.W.3.Z ] W.'.XXXX&X",
"3.P v ] 3.3.3.b.F.F.b.b.:.P :.z K.1X@X1 o % % % % % % % + N %X5XqXU.W _.Y /.%.N.=.N m o t @X2Xe.c.&XW.:.j ] b.3.P v v ] 3.b.W.'.",
"j P W.7XeXwX7X7X7X7X>X&XW.:.Z < I.yXrXt o % % % % % % % # N %X5XqXN.N _.Y /.=.B.N.;.U.* D rXtX7. .W.b.Z j v Z v Z ] :.] Z v v Z ",
"v F.7XuXuXeXwX7X7X7X>X=X'.:.v - K.;XoX1 o % % % % % % % # N %X5X5Xj.~ _.Y ).;.B.N.;./.* t oX<X5.h ] P Z P ] ] Z b.XX=X'.F.b.:.Z ",
"P '.eXuXeX7X7X>X>X>X>X=X'.:.v 8 K.-X|.1 o % % % % % % % % N %X5X#XE.M._.Y ).;.B.N.;.).= t |.;X6.Z 3.3.b.F.F.3.] '.eXuXwX=XXXF.:.",
"P W.wXeX7X>X>X7X7X>X=X=X'.] Z z K.8X;X9 o % % % % % % % # N %X5X%XA.=. XW ).;.B.N.;._.= k ;X8X8.Y.XXXX&X=XXXb.:.=XuXuXwX>X=XW.3.",
"P W.7XwX>X=X>X7X>X=X&X&X'.] P z P.rX8Xt o % % % % % $ @ # N %X5X6XW g .X~ ).;.B.C.;._.= D 9XtXr.Y.=X&X=X>XXXb.:.=XwXwX>X=X=XW.3.",
"Z 3.'.>X>X=X=X=X=X=X=X&XW.] Z z K.-X|.: o % % % % @ @ @ # N %X5XqX~ g .X~ /.=.B.C.;._.= t oX1Xr.F.=X&X=X=XXXb.:.&X7X>X=X=X&XW.:.",
"v P 3.F.'.XXXXXXXX'.'.W.3.v v h K.-X|.1 o $ % $ $ @ @ @ # N %X5XqX#.g .X~ /.%.B.V.;./.* t oX1Xw. .W.W.W.W.F.:.] '.&X=X=X=XXXb.Z ",
"P ] ] ] 3.b.F.F.b.b.:.P j j Z p I.rX8X9 o @ @ @ @ @ $ % % N %X5XqX~ g .X~ ).=.B.B.;.).* k 8XtX9.r P ] ] ] Z j v b.F.W.'.'.b.P j ",
"b.XXXXb.Z v v j j j j j 3.F.b.w I.9X1X9 o @ @ @ @ $ % % % N %X5X6X~ m .X~ ).;.V.B.;._.= k 2XrX9.r Z Z Z P v j j v Z P ] P v j j ",
"W.7XwX'.3.] Z j j j j Z W.'.F.8 K.-X|.1 o $ @ @ @ % % % % N %X5X#XA.;..X~ ).;.V.V.;._.= t oX1Xw. .b.:.:.:.:.] Z Z P ] ] P v j j ",
"W.7XuX>X'.F.3.Z v P :.3.W.W.b.4 K.;X|.1 o @ $ $ @ $ % % % N %X5X#XE.j._.Y ).;.B.V.;._.= t oX1Xr.Z.W.3.3.F.'.'.F.W.W.W.F.F.b.:.P ",
"F.>XeX7X>X&XF.] ] W.'.F.3.3.] , I.yX9Xt o % % % $ @ $ % % N %X5X5X;.W _.Y ).=.B.V.;.).* D rXyXr.c.F.] 3.XXwXeXwXwX7X>X=X=X&XW.3.",
"F.=X7X>X=XXXb.P F.7XeX=XF.:.v > K.2X@X9 o % % % % $ @ @ # N %X5X6XV.W _.W /.%.B.N.;./.* k -X8Xr.g.3.P b.7XuXuXeXeXwX7X=X=X&XW.3.",
"b.XX>X=X&X'.3.Z '.eXeX7X&XW.3.4 K.-X|.1 o % % % % % $ @ # N %X5X6XU.~  X~ /.%.B.N.=.N.= k |.<Xr.g.3.] F.7XeXeXwX7X7X>X>X=X&XW.:.",
"] b.W.'.&X'.:.Z XX7X7X>X=X&XW.p K.<X@X1 o % % % % % % % + N %X5XqXU.W .X~ /.#.f.~ m M.=.g E.1X8.c.3.] F.7XwX7X7X>X>X>X>X=X&XF.P ",
"Z Z ] b.W.b.P v W.XXXX'.'.'.W.h I.yXrXt o % % % % % % % + N %X5XqXU.W /.m f.Y ~ U./. X/.N }.yX8.c.3.] F.=X>X=X>X>X>X>X=X=XXXb.v ",
"b.:.P v v v j v 3.3.:.P P ] ] - K.<XoX1 o % % % % % % % + N %X5XqXf.g ;.%.f._..X.X^. X;.~ E.1X7.,.3.] b.XXXXXXXX&X&X=X>X&XW.:.j ",
"&XW.3.Z P :.:.] Z Z Z Z P ] :.4 K.-X|.1 o % % % % % % $ + N $XN.=.;.B.U. X.X XC.C.m g * k |.;X4.r v v ] :.] :.F.XX&X=X>XXX3.] 3.",
">XXXb.] F.'.'.b.Z ] F.'.'.W.F.t K.2X-X9 o % % % % % $ @ + N M.V./._._..XU.M.#.e e e t O k -X8X4.0 Z Z P Z j j ] F.'.'.'.b.P 3.&X",
"=X'.3.] XX7X>XW.] W.wXuXuX7XXXd K.tX9Xt o % % % % $ @ @ + N ;.U./. Xf.#.g 2 2 m g %.^.* D 9XyXw. .F.b.3.:.] Z v :.3.3.] j ] '.wX",
"&XXXb.] F.&XXX3.] XXeXuXeX>X'.d K.;X|.: o % % % $ @ @ @ # N ).=.m m 2 2 2 =.N B.V.;._.= t oX1Xt.Y.>X=XXXW.3.P Z P Z j j j b.&X7X",
"&XXXb.v ] F.F.] :.&XeXwX7X=X'.d I.<XoX1 o % % % % $ $ % % N %X).m e g C.N _.s.B.C.;./.* t oX2Xr.Y.7X>X&XXXb.:.F.W.F.:.v j :.W.&X",
"XXF.:.Z ] :.P v b.>XwX7X>X=XXXI T #.D o   . . . . . . . X N %X5X5XC.Y .X~ /.=.V.C.;./.= % D #.u.{.>X=X&X&Xb.3.W.&X'.3.v Z P :.b.",
"b.P v :.F.:.j j F.>XwX>X>X=XXXF.p 6 q 3 3 6 6 6 s G O.O.H R %X5XqX^.~ .X~ /.%.C.V.%.l.H.b.h.h.{.>X=X=X=X=XF.:.b.W.3.Z Z 3.:.P P ",
"P j v 3.W.F.] Z F.=X7X>X=X&XXXb.j j ] F.W.W.b.] P ] :.] L ^ %X5X6XU.~ .X~ /.%.V.N.l } &X=X=X&X&X&X&X=X=X>XF.P P P j P W.=XXXF.b.",
"b.:.Z P :.] Z v b.'.=X=X&X=XXXb.v 3.&XwXwX7X=XW.3.P Z P ' ^ %X5X6XU.~  X~ /.%.~ E F +.W.'.'.'.'.XXXXXX&X=XF.P j v :.W.7XwX>X&XXX",
"'.b.P v :.:.P Z :.b.W.'.XXXXW.3.] XXuXuXuXeX7X=XF.] ] W.].&.%X5X6XC.W _.Y B.a.<.( v P 3.3.3.3.3.3.b.b.F.F.:.Z v 3.XX7XeX7X>X>X>X",
"XXb.P :.'.XXF.] ] P ] b.F.F.:.P 3.7XuXeXwX7X>X&XF.] b.7X0Xp.%X5X6XV.Y ).B Q z.:.j j Z ] Z j j j j v Z Z Z j j :.=XeXeX7X>X>X>X=X",
"'.3.P b.7X7X'.:.] P Z Z v j j j F.>XwX7X>X>X=XXXF.Z :.=X4Xy.%X5X6XC.m { c V v j j v :.F.3.P P 3.b.F.W.W.F.:.P b.wXeX7X>X>X>X=X&X",
"b.P Z F.7X7X'.:.] b.W.b.] ] ] ] b.XX>X>X>X=X&X'.:.j P W.=Xk.$X3X5Xd./ J b.b.:.v :.:.3.3.] b.'.>X7X7X7X>X&XF.:.b.>X>X=X&X&X&XXX'.",
"P j P '.7X7X'.3.3.'.>X'.3.F.W.b.:.b.'.&X&X&XXXW.v v ] 3.`.Q.u.u.u.v.D.3.'.'.b.:.W.F.:.] 3.XXwXuXeXeXwX7X>XW.:.] F.F.F.F.b.b.3.3.",
"j j ] '.=X&XW.3.b.XX>XW.:.F.'.F.] P 3.F.W.W.F.:.j ] 3.] 3.R.XX&X=X+XF.:.W.F.3.F.=XW.:.] '.>XwX7X7X>X>X=X&XF.P j Z Z Z v v j j j ",
"3.] :.F.W.F.:.Z P F.F.:.v ] :.] Z Z Z Z v Z v j j Z P v v :.F.'.&XXXb.Z :.] b.XX>XW.:.:.F.W.W.'.'.'.W.W.b.] j j v P :.3.3.3.3.3.",
"'.F.3.] ] Z v v Z ] P v v 3.F.W.W.W.W.F.F.F.b.3.:.P P ] ] Z Z :.F.b.] j Z :.W.=X&XF.] Z ] :.:.3.:.3.3.:.P v j P F.'.XX&X&XXX'.'.",
"=X'.3.v P :.b.b.b.:.Z j ] '.7X7X7X7X7X>X>X>X=X'.W.:.:.b.3.] v v P v j j v 3.F.W.F.3.Z v 3.F.W.W.W.F.F.b.:.v v 3.&X7X7X7X>X=X=X=X",
"=X'.:.Z b.XX>X>X&XW.3.v 3.>XuXeXeXwXwX7X7X7X7X=X'.3.3.F.3.3.:.Z j j j j Z :.:.] P Z v ] XXwXeXwXwXwX7X=XW.P Z F.>X7X>X=X&X&X&X&X"
};
