/* XPM */
static char *out[] = {
/* columns rows colors chars-per-pixel */
"64 64 70 1 ",
"  c #070609",
". c #10190B",
"X c #1C1418",
"o c #19111D",
"O c #1D131E",
"+ c gray10",
"@ c #2B1C1D",
"# c #182611",
"$ c #07391D",
"% c #3E2613",
"& c #0B1F25",
"* c #101820",
"= c #121D2D",
"- c #0B2B28",
"; c #192832",
": c #2B2122",
"> c #2C2829",
", c #3B2924",
"< c #2E2533",
"1 c #3A313A",
"2 c #400B1F",
"3 c #651117",
"4 c #62351C",
"5 c #61382D",
"6 c #134507",
"7 c #1B5502",
"8 c #0B5C2F",
"9 c #214437",
"0 c #684415",
"q c #714535",
"w c #744B30",
"e c #3D3748",
"r c #4B444C",
"t c gray29",
"y c #4E4E4E",
"u c #4D4A5D",
"i c #514D58",
"p c gray32",
"a c #565656",
"s c #5E5252",
"d c #5B5B5B",
"f c #606060",
"g c gray40",
"h c #6D6D6D",
"j c #726B7E",
"k c #717073",
"l c #747474",
"z c #7C7C7C",
"x c #82171C",
"c c #AB1E1E",
"v c #986A20",
"b c #996B4A",
"n c #867E7F",
"m c #2F8136",
"M c #64A42C",
"N c #B78C41",
"B c #B7996A",
"V c #2A518C",
"C c #2DACD8",
"Z c #848484",
"A c #8B8B8B",
"S c #909090",
"D c #959595",
"F c #9A9A9A",
"G c gray63",
"H c gray66",
"J c #AFAFAF",
"K c gray72",
"L c #C4B59F",
"P c #EFEEEF",
/* pixels */
"aytpzGJGFAhtdZFFFDDDDDDAftyhDJJFZZASDDSzgdpahAFDDDAlptpfhhgddddd",
"yttygAGFDAhtplSDDDDDDSAladlDJKJHGFGGGFFSZlfpfzSDSZhdpglhfaytttyy",
"gdytazSSAzftpgzZZAAAZzhdalGKKJJJHHHHGGFFFAlfagzZlfadlDFZdtttydfg",
"AldyplSSZgpaggfghlllhfptfAJKJHGGFFFFGGGGDDAlfdfgptdZJKHAdtpflADD",
"DAhyphASzaazAZgyttttyppyazGJGFFFFFFFFGGGFDSAzfytygSJJHFZdtgSHJHF",
"DSZgpgZSzddzSAhtpadfhzzgahSGFFFFFFFFFFFFSSSSAgyplDHJHGDzppzJKJHF",
"SSAzpfZDzfaghhdyhzASDFDZfflSDDDDFDDFDDDDDSSSZdphFJJHGFDzpdAKKHFF",
"ASSzpfzSzdttyttylFKJGFFSldfzASSSSAZZZAAAAAAZhydAJJGFGGFzpdAJHGFF",
"SSAzpfzAgytahhgdfAHGFDSSZgpflzzzzhgddghgfdfdtthFHGFFFGDzpfZHGFFD",
"DDSzydhhptdZGGShahzZZZAAZhpy000000000ppyttttttgAFFFFFFDzpdzGFDDD",
"zzlgtpdptplHKKHZfadffghlhd00vNBBBBBBv00ggdptttahzZZASSSzpalSSAAA",
"dapytttttgDKKKHDlfpytypyt0vNBBBBNNNNNv00DZhpypdfffghlzzhypgzzllh",
"taffayttaZHKJHHGSZzzzlgp0NBBBBNNvvNNNNNv0FZgalAAhdytydfptypapytt",
"gZFSlfytaZGHGGGFFSSDDAz0NBBBNNBBBNvvvNNN0FSzfzFFZfttazAzlhhgfapt",
"zGKHSlfyphSGFFFFFDDDFDZ2BBBBBBBBNNNBBBNN22SZfhADzdpafDJHFDAZzzhd",
"zFJGFAlfyalSDDDFFDSSSS2x2NNNBBBNNNNNNN22x2SZgflzdpfgfAJJHGGFFDZg",
"hZFFDDZlapfzAAAAAAAAAS2cx2222222222222xxc2SAhafhyhZlfZGGFFFDDDzg",
"aglZAZlfytpfggfffghhghO3ccxxxccccxxxxccc32ggdypdthZhdlDDDDDSSAld",
"tydghgaytttyyyyytypaapOO3cccccxxxccccxx32%pytttytfgfyflzzzlllhfy",
"dpyyyttaayyafffgfddfffpOOOOO3333333322332%gapytyaddaypadddaadapy",
"ZldytdlZzfahFHGFDSSSAzf 5555OOOOOO2232xxc2SZlfpfZSAzdppytflZZAzl",
"DAldplFGShdlJKKJHGGFDzf++++++++++5OOOO3xxc2DAgdlHJGAdfhhazGJHGDZ",
"DDZhdAJHDhdlJKKJHGGFDzd++555,XX:,5,,55Oxxc2DAhflJKGZdlSAgZHKKHDA",
"SSZlfAHGShahGHHFFDDFSldf+555  CC,5,555O3xc2SAhfhGHDzdzFSglFJHGDS",
"ASZhfZFDAhdgZDFFFDDDAldd 555V PP55,,5:XOOO2ZldahDFAlpzFSggZHGFDS",
"SSzfphzlhatpfhZFFDDDSldp 555==P55,,,XX l%NN0adlADDZhylDShdlDFDSS",
"ZlfpydgffpyppahSSSSSSZfy ,555555555,:  f%N%N%lSFDDZgthZzgpdzZAAS",
"gaydggghllhhfafzzzZZAzftp :5555555,:0BN0g%d%lSDSSSzftdhgayydghzZ",
"tazGJHGGGGFSzfpayypddpttf  X,5555,:0BN0X Alfglzzzzhptypypdfdpyyp",
"ylGKKJHGGGFDZfyyyypddaypz00XXXXXXXX0N0qqX zdadfffdapaddphADZlhfp",
"aZJKJGGFFFFDZfyfzzZZzlfd0B0:,,,,,,0N0qqq, laglzlhgghllgdZJKHDAlf",
"azHJGFFGGFDDZdpzJKKJHDzf0B0,,,,,,0N055qq5X fAHJHGAASDAhfDKKHFDzg",
"azGHFDFGFDSSZdazKKKJHFAz0B#555550BN055555: fDJJHGDSDFAhfDHHFDDzg",
"pgZFFDDDDDDSzdpzHKJHGDDS0BB.555.BBN0,,5555 dAGGFFDSDDAhfSGFDDSzf",
"yaglZAAAAZZzgyylGJHGFFDS0NB.555.BBN0%:,555 yhzzzzzzzzlfdZSDDDAhp",
"adddghllhhfattphGHGFFFFA;;;.555.BBN0%Xooo5 tpdddaadddptyhlzZZhat",
"hAAhpyytttttglhgDGFFFGF*9mm;;;q.BBNN;o>kio padddapppayttypadaytt",
"zGHZgdpttttpzZlfAFFFGFD*%%8mMm;;;;;;8o>ki>oflASAzhffffdppaddaytt",
"zGKFZlgpyafgzzhdZFFFFFD*%4%@@@MM888%<<ooi>ohAJKGDzgglZZlzzzllhfa",
"lFJGFSlddzZlggdazSDDDDD*%4b@jj@@@%%<1r<<o>ohDKKGSldgAHJHHGFDDSzg",
"lDGFDAhalGJDlfyplzzzzZZ *%4@uejj@bb<rLn1<<ofFJJFAgahGKKJJHGDDSzg",
"hAFDSZgpZJJGSzgdddaaaad **%@ueeu@44<rnssr<pgGJHFAgdlGJJHGGFFDSzf",
"dhzZSZfpAGGFDSzhpttttttt %4@@ueu@@%<1ssr1<azHHGFSgdlGHGGFFFFDSla",
"ppdhzhayzAAZZZzldyaghggg%bw44@@@@99<<rr1<*gAGGDDSgdlDFDFFFFDDAhy",
"hfayyytyggfaaddytyhDFDS%bw4%%$*****<n1<<m*gzAAZzZgdhAAAASSDFSzft",
"SzgpaffdppppadfdyahAAAA%44%$$$-&<r$$<n<8m*ffgfaaayydfdflASDFAgdg",
"FAhdlZZhpdlZZzlhdpfgggg%%%$$$--&<L<<s1<89*aadaaapppapttdlZZZhagS",
"DZgdAGFzdzHKKGAldaapyyypy&$-$$-&$<Ls1<8m*yfllzZZzlhgfdpyfggdtdZH",
"SAhdlSAgdAJKJFZlgllfpgZSS&&&---&$7<<<***adzHJKJJGFDAzgapapttthSG",
"SAhydlldfSJHGDZlfZAgphSHHJ X&&-&&&&6$--&gfZKKKJHGGFSAhflzlfytfzS",
"AlfpdfayhFHGFDAldllftfzZ  :,5,&&&  &&&--&fzKKHGFFFDSShgzSZgypafh",
"hayflfttlFHFFDAlpadppaa ,,,55,,   ::,,&-&flGGFFFFDDDDlfhzgppgfaa",
"atygzldplDGFDSAhttdlzzh 55555,X  X,55,,&&dgSDDSSSSDDFlaaatazDAlh",
"hfpafdpyhZDDSDAhygSHHGD        :55555:: hafzZZZZAAASDlatyfzGHFSA",
"ZhayffapfhzZAAzgdAKKKJGDlddzSA ,,55,:: zdyagggggghhllfpygAGJGFFF",
"AhafZAlddadhllfagGKJHGFSldhGKKJ       lfttpdpttttypppttfDJJGFFFD",
"ZgahGGZfdappytttlFHGFFDAlpfDJJJHGShyppyttyflgaaghlzzlfahHJGFFFDS",
"haplGGZfdhzhddddhAFFFDSZftazGHGGFAldhhfyffggdhZFGGGFSlfhFFDSSSAZ",
"ataZGGZggZFZglzhfhZSSSAzyydgZDFFFSlgZZhfzlfdgAHKJJHGFzfdllllhhgg",
"ttdZDSzghAFzflZldaglzzlftdgdgzSDFSlfzlglDzfdZFHGGFFDSlatpppyyttt",
"gdflzlfpallfydfdppppypyttpayyflZSAhpfdhAFzfflzzZZZzzhdttyafggggg",
"ZlgddpyypdayyglzzzzlllhgfaaddppflhdtpfzDSldpdffgfggfaytalZASSAZZ",
"DZgyafhhhfptdZGGGGGFFFDZzffhgdyyayttyglzlgpyglzzzllhfyygSGGGFDDD",
"DZfphAFFSzgygFKJJHHGGGGDZgglggfpttttpffdapydAHJHHHGDzaplFGFDSSSS"
};
