/* XPM */
static char *out[] = {
/* columns rows colors chars-per-pixel */
"64 64 68 1 ",
"  c #070609",
". c #10190B",
"X c #1C1418",
"o c #19111D",
"O c #1D131E",
"+ c gray10",
"@ c #2B1C1D",
"# c #182611",
"$ c #07391D",
"% c #3E2613",
"& c #0B1F25",
"* c #101820",
"= c #0B2B28",
"- c #192832",
"; c gray14",
": c #2B2122",
"> c #2C2829",
", c #3B2924",
"< c #2E2533",
"1 c gray21",
"2 c #3A313A",
"3 c #400B1F",
"4 c #651117",
"5 c #62351C",
"6 c #61382D",
"7 c #134507",
"8 c #1B5502",
"9 c #0B5C2F",
"0 c #214437",
"q c #684415",
"w c #714535",
"e c #744B30",
"r c #3D3748",
"t c #4B444C",
"y c gray29",
"u c #4E4E4E",
"i c #4D4A5D",
"p c #514D58",
"a c gray32",
"s c #565656",
"d c #5E5252",
"f c #5B5B5B",
"g c #606060",
"h c gray40",
"j c #6D6D6D",
"k c #726B7E",
"l c #717073",
"z c #747474",
"x c #7C7C7C",
"c c #82171C",
"v c #AB1E1E",
"b c #986A20",
"n c #996B4A",
"m c #867E7F",
"M c #2F8136",
"N c #64A42C",
"B c #B78C41",
"V c #B7996A",
"C c #848484",
"Z c #8B8B8B",
"A c #909090",
"S c #959595",
"D c #9A9A9A",
"F c gray63",
"G c gray66",
"H c #AFAFAF",
"J c gray72",
"K c #C4B59F",
/* pixels */
"suyaxFHFDZjyfCDDDSSSSSSZgyujSHHDCCZASSAxhfasjZDSSSZzayagjjhfffff",
"uyyuhZFDSZjyazASSSSSSAZzsfzSHJHGFDFFFDDACzgagxASACjfahzjgsuyyyuu",
"hfuysxAAZxgyahxCCZZZCxjfszFJJHHHGGGGFFDDDZzgshxCzgsfzSDCfyyyufgh",
"ZzfuazAAChashhghjzzzjgaygZHJHGFFDDDDFFFFSSZzgfghayfCHJGZfyagzZSS",
"SZjuajZAxssxZChuyyyyuaausxFHFDDDDDDDDFFFDSAZxguyuhAHHGDCfyhAGHGD",
"SAChahCAxffxAZjyasfgjxxhsjAFDDDDDDDDDDDDAAAAZhuazSGHGFSxaaxHJHGD",
"AAZxagCSxgshjjfujxZASDSCggzASSSSDSSDSSSSSAAACfajDHHGFDSxafZJJGDD",
"ZAAxagxAxfyyuyyuzDJHFDDAzfgxZAAAAZCCCZZZZZZCjufZHHFDFFDxafZHGFDD",
"AAZxagxZhuysjjhfgZGFDSAAChagqqqqqqqqqhjhgfgfyyjDGFDDDFSxagCGFDDS",
"SSAxufjjayfCFFAjsjxCCCZZCjqqbVVVVVVBbqquyyyyyyhZDDDDDDSxafxFDSSS",
"xxzhyafayazGJJGCgsfgghjzjqqbBBBBBVVVVBbqhfayyysjxCCZAAAxaszAAZZZ",
"fsauyyyyyhSJJJGSzgauyuauqbBBBBBbbBBVVVVBqCjauafggghjzxxjuahxxzzj",
"ysggsuyysCGJHGGFACxxxzhaqBBBbbbBVVVBBVVVBqChszZZjfuyufgayuasauyy",
"hCDAzguysCFGFFFDDAASSZx33BBVVVBBBVVVVVVVV3AxgxDDCgyysxZxzjjhgsay",
"xFJGAzguajAFDDDDDSSSDSC3c33BBBBBBBVVVBBB3c3CgjZSxfasgSHGDSZCxxjf",
"xDHFDZzguszASSSDDSAAAAC3vcc3333333333333cv3ChgzxfaghgZHHGFFDDSCh",
"jCDDSSCzsagxZZZZZZZZZAC34vvvccccvvvvcccvv4OZjsgjujCzgCFFDDDSSSxh",
"shzCZCzguyaghhggghjjhjg%34ccvvvvcccvvvvv43OhfuafyjCjfzSSSSSAAZzf",
"yufhjhsuyyyuuuuuyuassau%3443344444444OOOOOauyyyuyghgugzxxxzzzjgu",
"fauuuyyssuusggghgffggga3vcc3433OOOOOO6666 hsauyusffsuasfffssfsau",
"CzfuyfzCxgsjDGFDSAAAZx3vcc4OOOO666ww66++++ACzgagCAZxfaauygzCCZxz",
"SZzfazDFAjfzHJJHGFFDSx3vccO66,,6,:;;;+66, DSZhfzGHFZfgjjsxFHGFSC",
"SSCjfZHGSjfzHJJHGFFDSx3vc4O666,6,;111;66 SSSZjgzHJFCfzAZhCGJJGSZ",
"AACzgZGFAjsjFGGDDSSDAz3OOOX:6,,66;1;;;66 SAAZjgjFGSxfxDAhzDHGFSA",
"ZACjgCDSZjfhCSDDDSSSZqBB%D XX,,+++;;;666 AACzfsjSDZzaxDAhhCGFDSA",
"AAxgajxzjsyagjCDDSSS%B%B%S  +++66666666, zjgsfzZSSCjuzSAjfzSDSAA",
"CzgaufhggauaasjAAAAAA%g%hqBVq:,6666666: ggsyszADSSChyjCxhafxCZZA",
"hsufhhhjzzjjgsgxxxCCZxgy XqBVq:,6666,X  hhfszASAAAxgyfjhsuufhjxC",
"ysxFHGFFFFDAxgasuuaffay XwwqBqXXXXXXXXqqDZzghzxxxxjayuauafgfauua",
"uzFJJHGFFFDSCguuuuaffsu ,wwwqBq,,,,,,:qVqSxfsfgggfsasffajZSCzjga",
"sCHJHFFDDDDSCgugxxCCxz X6ww66qBq,,,,,,qVqAzshzxzjhhjzzhfCHJGSZzg",
"sxGHFDDFFDSSCfaxHJJHGS :66666qBVq66666#VqZjgZGHGFZZASZjgSJJGDSxh",
"sxFGDSDFDSAACfsxJJJHGD 6666,,qBVV.666.VVqZjgSHHGFSASDZjgSGGDSSxh",
"ahCDDSSSSSSAxfaxGJHGFS 666,:%qBVV.666.VBqCjfZFFDDSASSZjgAFDSSAxg",
"ushzCZZZZCCxhuuzFHGFDD 6oooX%qBVV.666.---hfujxxxxxxxxzgfCASSSZja",
"sfffhjzzjjgsyyajFGFDDD opl>o-BBVV.w---MM0*yyafffssfffayujzxCCjsy",
"jZZjauuyyyyyhzjhSFDDDFo>pl>o9------MNM9%%*sasfffsaaasuyyuasfsuyy",
"xFGChfayyyyaxCzgZDDDFDo>poo<<%999NN@@@%5%*zgzZAZxjggggfaasffsuyy",
"xFJDCzhausghxxjfCDDDDDo>o<<t2<%%@@rkk@n5%*CjZHJFSxhhzCCzxxxzzjgs",
"zDHFDAzffxCzhhfsxASSSSo<<2mKt<nn@kkri@5%* xjSJJFAzfhZGHGGFDSSAxh",
"zSFDSZjszFHSzguazxxxxCC<tddmt<55@irri@%** hgDHHDZhsjFJJHHGFSSAxh",
"jZDSAChaCHHFAxhfffssssf<2tdd2<%@@iri@@5% sahFHGDZhfzFHHGFFDDSAxg",
"fjxCACgaZFFDSAxjayyyyyy*<2tt<<00@@@@55en%ysxGGFDAhfzFGFFDDDDSAzs",
"aafjxjsuxZZCCCxzfushjhh*M<<2m<*****$%%5en%hZFFSSAhfzSDSDDDDSSZju",
"jgsuuuyuhhgssffuyujSDSA*M9<m<$$t<&=$$$%55%hxZZCxChfjZZZZAASDAxgy",
"AxhasggfaaaasfgfusjZZZZ*09<2d<<K<&==$$$%%%gghgsssuufgfgzZASDZhfh",
"DZjfzCCjafzCCxzjfaghhhhh*M9<2dK<$&=$$=$&asssfsssaaasayyfzCCCjshA",
"SChfZFDxfxGJJFZzfssauuuau***<<<8$&===&&&yugzzxCCxzjhgfaughhfyfCG",
"AZjfzAZhfZHJHDCzhzzgahCAA&==$7&&&&=&&X hsfxGHJHHFDSZxhsasayyyjAF",
"AZjufzzfgAHGFSCzgCZhajAG&==&&&  &&&,6,:  gCJJJHGFFDAZjgzxzguygxA",
"ZzgafgsujDGFDSZzfzzgygxC&=&,,::   ,,66,,, xJJGFDDDSAAjhxAChuasgj",
"jsugzgyyzDGDDSZzasfaasss&&,,66,X  X,66666 zFFDDDDSSSSzgjxhaahgss",
"syuhxzfazSFDSAZjyyfzxxjfs ::66666:        hASSAAAASSDzsssysxSZzj",
"jgasgfaujCSSASZjuhAGGFSxhs ::,66,, hxSDAjsgxCCCCZZZASzsyugxFGDAZ",
"CjsuggsagjxCZZxhfZJJJHFSzff       gszZAxfushhhhhhjjzzgauhZFHFDDD",
"ZjsgCZzffsfjzzgshFJHGFDAzfjFJJHGGSjajzzgyyafayyyyuaaayygSHHFDDDS",
"ChsjFFCgfsaauyyyzDGFDDSZzagSHHHGFAjuaauyyugzhsshjzxxzgsjGHFDDDSA",
"jsazFFCgfjxjffffjZDDDSACgysxFGFFDZzfjjgugghhfjCDFFFDAzgjDDSAAAZC",
"sysCFFChhCDChzxjgjCAAAZxuufhCSDDDAzhCCjgxzgfhZGJHHGFDxgfzzzzjjhh",
"yyfCSAxhjZDxgzCzfshzxxzgyfhfhxASDAzgxzhzSxgfCDGFFDDSAzsyaaauuyyy",
"hfgzxzgaszzgufgfaaaauauyyasuugzCAZjagfjZDxggzxxCCCxxjfyyusghhhhh",
"CzhffauuafsuuhzxxxxzzzjhgssffaagzjfyagxSAzfafgghghhgsuyszCZAAZCC",
"SChusgjjjgayfCFFFFFDDDSCxggjhfuusuyyuhzxzhauhzxxxzzjguuhAFFFDSSS",
"SCgajZDDAxhuhDJHHGGFFFFSChhzhhgayyyyaggfsaufZGHGGGFSxsazDFDSAAAA"
};
