/* XPM */
static char *out[] = {
/* columns rows colors chars-per-pixel */
"64 64 61 1 ",
"  c #070609",
". c #1C1418",
"X c #19111D",
"o c #1D131E",
"O c gray10",
"+ c #07391D",
"@ c #3E2613",
"# c #0B1F25",
"$ c #101820",
"% c #0B2B28",
"& c #192832",
"* c #2B2122",
"= c #2C2829",
"- c #3B2924",
"; c #2E2533",
": c #3A313A",
"> c #400B1F",
", c #651117",
"< c #62351C",
"1 c #61382D",
"2 c #134507",
"3 c #1B5502",
"4 c #0B5C2F",
"5 c #214437",
"6 c #684415",
"7 c #714535",
"8 c #744B30",
"9 c #4B444C",
"0 c gray29",
"q c #4E4E4E",
"w c #514D58",
"e c gray32",
"r c #565656",
"t c #5E5252",
"y c #5B5B5B",
"u c #606060",
"i c gray40",
"p c #6D6D6D",
"a c #717073",
"s c #747474",
"d c #7C7C7C",
"f c #82171C",
"g c #AB1E1E",
"h c #986A20",
"j c #996B4A",
"k c #A17C50",
"l c #867E7F",
"z c #2F8136",
"x c #64A42C",
"c c #B78C41",
"v c #B7996A",
"b c #848484",
"n c #8B8B8B",
"m c #909090",
"M c #959595",
"N c #9A9A9A",
"B c gray63",
"V c gray66",
"C c #AFAFAF",
"Z c gray72",
"A c #C4B59F",
/* pixels */
"rq0edBCBNnp0ybNNNMMMMMMnu0qpMCCNbbnmMMmdiyerpnNMMMnse0euppiyyyyy",
"q00qinBNMnp0esmMMMMMMmnsrysMCZCVBNBBBNNmbsueudmMmbpyeispurq000qq",
"iyq0rdmmndu0eidbbnnnbdpyrsBZZCCCVVVVBBNNNnsuridbsurysMNby000qyui",
"nsyqesmmbieriiuipssspue0unCZCVBBNNNNBBBBMMnsuyuie0ybCZVny0eusnMM",
"Mnpqepnmdrrdnbiq0000qeeqrdBCBNNNNNNNNBBBNMmnduq0qimCCVNby0imVCVN",
"Mmbieibmdyydmnp0eryupddirpmBNNNNNNNNNNNNmmmmniqesMVCVBMdeedCZCVN",
"mmndeubMdurippyqpdnmMNMbuusmMMMMNMMNMMMMMmmmbyepNCCVBNMdeynZZVNN",
"nmmdeudmdy00q00qsNZCBNNmsyudnmmmmnbbbnnnnnnbpqynCCBNBBNdeynCVBNN",
"mmndeudniq0rppiyunVBNMmmbieusddddpiyyipiuyuy00pNVBNNNBMdeubVBNNM",
"MMmdqyppe0ybBBmprpdbbbnnbpe6666666666eeq000000inNNNNNNMdeydBNMMM",
"ddsi0eye0esVZZVburyuuipsp66ccccvvvvvv66iiye000rpdbbnmmmdersmmnnn",
"yreq00000iMZZZVMsueq0qeq6cccch6666hvvvv6Mbpeqeyuuuipsddpqeiddssp",
"0ruurq00rbVZCVVBmbdddsi6ccch66hcch666vvv6Nbirsnnpyq0qyue0qereq00",
"ibNmsuq0rbBVBBBNNmmMMnd6cccccccvvvvcccvv6NmdudNNbu00rdndsppiure0",
"dBZVmsuqepmBNNNNNMMMNM6chhhhccccvvvvvvvvc6mbupnMdyeruMCVNMnbddpy",
"dNCBNnsuqrsmMMMNNMmmmm6h6ccccvvvvvvvvvvch6mbiusdyeuiunCCVBBNNMbi",
"pbNNMMbsreudnnnnnnnnnm66cccccccvvvvvvcch66mnprupqpbsubBBNNNMMMdi",
"risbnbsuq0euiiuuuippip>ccccccvvvvvvvvvhcv>iiyqey0pbpysMMMMMmmnsy",
"0qyipirq000qqqqq0qerr >>cccvvvvvvvvvvhh6>> q000q0uiuqusdddssspuq",
"yeqqq00rrqqruuuiuyyuu >f>cccccccvvvv66>>f> req0qryyrqeryyyrryreq",
"bsyq0ysbdurpNVBNMmmmn ogf>>>>>>>>>>>>>fgg> bsueubmndyeeq0usbbnds",
"MnsyesNBmpysCZZCVBBNM o,gggggffffffggggf,> MniysVCBnyupprdBCVBMb",
"MMbpynCVMpysCZZCVBBNM .o,,fggggggggggf,,fg>MnpusCZBbysmnibVZZVMn",
"mmbsunVBmprpBVVNNMMNms 1ooo>,,,,,,,>ooo,ffg>npupBVMdydNmisNCVBMm",
"nmbpubNMnpyibMNNNMMMnsy O@@ooooooooo6@o>,fg>syrpMNnsedNmiibVBNMm",
"mmduepdspr0eupbNNMMMmsye *-@@@@6v6@---*o,fg>rysnMMbpqsMmpysMNMmm",
"bsueqyiuueqeerpmmmmmm 666.*---@vhv6@-*.6oo>>rsmNMMbi0pbdieydbnnm",
"irqyiiipssppurudddbb .6cv6..--@v6hv6@.6vc6. smMmmmdu0ypirqqyipdb",
"0rdBCVBBBBNmduerqqe .776v6---@vh@6h6@-6v677. sddddpe0qeqeyuyeqqe",
"qsBZZCVBBBNMbuqqqqe 1776vc6--@66@@6@-6cv6771 yuuuyreryyepnMbspue",
"rbCZCBBNNNNMbuqudd *1116vvc66-@@--@66cvv@111* dspiipssiybCZVMnsu",
"rdVCBNNBBNMMbyedCZ *-116vvvcc666666ccvvc@11-* CVBnnmMnpuMZZVNMdi",
"rdBVNMNBNMmmbyrdZZXXX**6cvvvvcvvvvcvvvvc@**XXXCVBMmMNnpuMVVNMMdi",
"eibNNMMMMMMmdyedVX=awX6ccvvvvvcvvcvvvvcc6@X=awXNNMmMMnpumBNMMmdu",
"qrisbnnnnbbdiqqsBX=awX6&cvvvvv6vv6vvvvc6&@X=awXddddddsuybmMMMnpe",
"ryyyipssppur00epBX=awX$5&&vvvvcvvcvvvv&&5$X=awXyrryyye0qpsdbbpr0",
"pnnpeqq00000ispiMX=awX$545&&vvvvvvvv&&545$X=awXyreeerq00qeryrq00",
"dBVbiye0000edbsunXXXX;;@@@z5&&&&&&&&5z@@@ XXXXXndpuuuuyeeryyrq00",
"dBZNbsieqruiddpyb -;;9:;8<@@444zxxzz@@<8@ -11- BMdiisbbsdddsspur",
"sNCBNmsyydbsiiyrd;;:lA9;<8j<@@@@@@@@<j8<##117- BmsyinVCVVBNMMmdi",
"sMBNMnprsBCMsuqes;9ttl9;@<<jkkkkkkkkj<<@%#111* NnirpBZZCCVBMMmdi",
"pnNMmbiebCCBmdiyy;:9tt:;4@@<88888888<@@&%#111. NniysBCCVBBNNMmdu",
"ypdbmbuenBBNMmdpe0;:99;%45&@@@@@@@@@@5&$%#-1* BNmiysBVBBNNNNMmsr",
"eeypdprqdnnbbbdsyqr;;:9z44$&55555555&$$+%#   BMMmiysMNMNNNNMMnpq",
"purqqq0qiiurryyq0qpM;9;z45$$$$$$$$$$$++2+#idnnbdbiypnnnnmmMNmdu0",
"mdieruuyeeeeryuyqrpn;9;44&$+%##dd##%++2+2%#uiurrrqqyuyusnmMNniyi",
"Nnpysbbpeysbbdspyeui;:;45$+%##uuyy##%++223#ryrrreeere00ysbbbprim",
"MbiynBNdydVZZBnsyrre#;:45$%+%#0000#%+%+++23#sdbbdspiuyequiiy0ybV",
"mnpysmniynCZCNbsissue#;z4&$%%#puey#%%++2+##VCZCCBNMndirere000pmB",
"mnpqyssyumCVBMbsubni ..###%%##nsrs##%%###.. ZZCVBBNmnpusdsuq0udm",
"nsueyurqpNVBNMnsyssu ..-11####mses####11-.. ZVBNNNMmmpidmbiqerup",
"prqusu00sNVNNMnserye **771* nndi0pmN *177** BNNNNMMMMsupdieeiurr",
"r0qidsyesMBNMmnp00ys *-771* yur00ysb *177-* MMmmmmMMNsrrr0rdMnsp",
"pueruyeqpbMMmMnpqimVV .-1*. uuuyyuui .*1-. dbbbbnnnmMsr0qudBVNmn",
"bprquureupdbnndiynZZZC     dmnbbbdurs     riiiiiippssueqinBCBNNN",
"nprubnsyyrypssuriBZCVBNmsypBZZCVVMpepssu00eye0000qeee00uMCCBNNNM",
"birpBBbuyreeq000sNVBNNMnseuMCCCVBmpqeeq00qusirripsddsurpVCBNNNMm",
"presBBbuypdpyyyypnNNNMmbu0rdBVBBNnsyppuquuiiypbNBBBNmsupNNMmmmnb",
"r0rbBBbiibNbisdpupbmmmndqqyibMNNNmsibbpudsuyinVZCCVBNduyssssppii",
"00ybMmdipnNdusbsyrisddsu0yiyidmMNmsudsisMduybNVBBNNMmsr0eeeqq000",
"iyusdsuerssuqyuyeeeeqeq00erqqusbmnpeuypnNduusddbbbddpy00qruiiiii",
"bsiyyeqqeyrqqisddddssspiurryyeeuspy0eudMmsyeyuuiuiiurq0rsbnmmnbb",
"Mbiqrupppue0ybBBBBBNNNMbduupiyqqrq00qisdsieqisdddsspuqqimBBBNMMM",
"MbuepnNNmdiqiNZCCVVBBBBMbiisiiue0000euuyreqynVCVVVBMdresNBNMmmmm"
};
