/* XPM */
static char *out[] = {
/* columns rows colors chars-per-pixel */
"64 64 71 1 ",
"  c #070609",
". c #10190B",
"X c #1C1418",
"o c #19111D",
"O c #1D131E",
"+ c gray10",
"@ c #2B1C1D",
"# c #07391D",
"$ c #3E2613",
"% c #0B1F25",
"& c #101820",
"* c #121D2D",
"= c #0B2B28",
"- c #192832",
"; c gray14",
": c #2B2122",
"> c #2C2829",
", c #3B2924",
"< c #2E2533",
"1 c gray21",
"2 c #3A313A",
"3 c #400B1F",
"4 c #651117",
"5 c #62351C",
"6 c #61382D",
"7 c #134507",
"8 c #0B5C2F",
"9 c #214437",
"0 c #684415",
"q c #714535",
"w c #744B30",
"e c #3D3748",
"r c #4B444C",
"t c gray29",
"y c #4E4E4E",
"u c #4D4A5D",
"i c #514D58",
"p c gray32",
"a c #565656",
"s c #5E5252",
"d c #5B5B5B",
"f c #606060",
"g c gray40",
"h c #6D6D6D",
"j c #726B7E",
"k c #717073",
"l c #747474",
"z c #7C7C7C",
"x c #82171C",
"c c #AB1E1E",
"v c #986A20",
"b c #996B4A",
"n c #A17C50",
"m c #867E7F",
"M c #2F8136",
"N c #64A42C",
"B c #B78C41",
"V c #B7996A",
"C c #2A518C",
"Z c #2DACD8",
"A c #848484",
"S c #8B8B8B",
"D c #909090",
"F c #959595",
"G c #9A9A9A",
"H c gray63",
"J c gray66",
"K c #AFAFAF",
"L c gray72",
"P c #C4B59F",
"I c #EFEEEF",
/* pixels */
"aytpzHKHGShtdAGGGFFFFFFSftyhFKKGAASDFFDzgdpahSGFFFSlptpfhhgddddd",
"yttygSHGFShtplDFFFFFFDSladlFKLKJHGHHHGGDAlfpfzDFDAhdpglhfaytttyy",
"gdytazDDSzftpgzAASSSAzhdalHLLKKKJJJJHHGGGSlfagzAlfadlFGAdtttydfg",
"SldyplDDAgpaggfghlllhfptfSKLKJHHGGGGHHHHFFSlfdfgptdAKLJSdtpflSFF",
"FShyphSDzaazSAgyttttyppyazHKHGGGGGGGGHHHGFDSzfytygDKKJGAdtgDJKJG",
"FDAgpgADzddzDShtpadfhzzgahDHGGGGGGGGGGGGDDDDSgyplFJKJHFzppzKLKJG",
"DDSzpfAFzfaghhdyhzSDFGFAfflDFFFFGFFGFFFFFDDDAdphGKKJHGFzpdSLLJGG",
"SDDzpfzDzdttyttylGLKHGGDldfzSDDDDSAAASSSSSSAhydSKKHGHHGzpdSKJHGG",
"DDSzpfzSgytahhgdfSJHGFDDAgp0000000000ghgfdfdtthGJHGGGHFzpfAJHGGF",
"FFDzydhhptdAHHDhahzAAASSA00BBVVVVVBBB00yttttttgSGGGGGGFzpdzHGFFF",
"zzlgtpdptplJLLJAfadffghl0BVVVBvv00BBBBB0gdptttahzAASDDDzpalDDSSS",
"dapytttttgFLLLJFlfpytyp0BVVvvvBBBB00BBBB0Ahpypdfffghlzzhypgzzllh",
"taffayttaAJLKJJHDAzzzlg0VVBBBVVVVBBBBBBv0GAgalSShdytydfptypapytt",
"gAGDlfytaAHJHHHGGDDFFS3BVVVVVVVVVBBBvv00v3DzfzGGAfttazSzlhhgfapt",
"zHLJDlfyphDHGGGGGFFFGF33vVVVVVVVVVVBBBBB33DAfhSFzdpafFKJGFSAzzhd",
"zGKHGSlfyalDFFFGGFDDDD3x3BBVVVVVVVVVVB33x3DAgflzdpfgfSKKJHHGGFAg",
"hAGGFFAlapfzSSSSSSSSSD3cx3333333333333xcc3DShafhyhAlfAHHGGGFFFzg",
"aglASAlfytpfggfffghhghOccccccxxxxxxccccx43ggdypdthAhdlFFFFFDDSld",
"tydghgaytttyyyyytypaap Ocxxccccccccccx44xc3ytttytfgfyflzzzlllhfy",
"dpyyyttaayyafffgfddfff $OOOO44444444OOO4xxc3pytyaddaypadddaadapy",
"AldytdlAzfahGJHGFDDDS X:,666OOOOOOOO+++O4xc3lfpfADSzdppytflAASzl",
"FSldplGHDhdlKLLKJHHGF 6:,,6qq66++++qq,,O4xc3SgdlJKHSdfhhazHKJHFA",
"FFAhdSKJFhdlKLLKJHHGF 6:,,:+++;666,XX:,:OOOOShflKLHAdlDSgAJLLJFS",
"DDAlfSJHDhahHJJGGFFGD 66:,+111+66,Z  Z,:66 DShfhHJFzdzGDglGKJHFD",
"SDAhfAGFShdgAFGGGFFFSl 6+++1;;+666IC I,:6 DAldahFGSlpzGDggAJHGFD",
"DDzfphzlhatpfhAGGFFFDld  ,6+++6666I**6,  lhfadlSFFAhylFDhdlFGFDD",
"AlfpydgffpyppahDDDDDD 00 :666666666666: 00 talDGFFAgthAzgpdzASSD",
"gaydggghllhhfafzzzAA X,0BX,6666666666,XB0,X lDFDDDzftdhgayydghzA",
"tazHKJHHHHGDzfpayyp Xqq0VBXX,666666,XX0B0qqX lzzzzhptypypdfdpyyp",
"ylHLLKJHHHGFAfyyyyp ,qqq0V0,XXXXXXXX,0B0qqq, dfffdapaddphSFAlhfp",
"aAKLKHHGGGGFAfyfzz :6qq60BV0,,,,,,,,0BB06qq6: zlhgghllgdAKLJFSlf",
"azJKHGGHHGFFAdpzKL :66660BV0,,,,,,,0VB006666: KJHSSDFShfFLLJGFzg",
"azHJGFGHGFDDAdazLL :,,:,0BVV.666666.VB0$,:,,: KJHFDFGShfFJJGFFzg",
"pgAGGFFFFFFDzdpzJ ooo:X0BBVVV.6666.VVB0$$X:ooo GGFDFFShfDHGFFDzf",
"yaglASSSSAAzgyylHoik>o0-BVVVV.6666.VVBB0-$oik>ozzzzzzlfdADFFFShp",
"adddghllhhfattphHoik>o09--VVV.6666.VVV--9$oik>odaadddptyhlzAAhat",
"hSShpyytttttglhgFoik>o&989--V.6666.V--989&oik>odapppayttypadaytt",
"zHJAgdpttttpzAlfSoik>o&-$$M9--------9M$$$&oik>oSzhffffdppaddaytt",
"zHLGAlgpyafgzzhdAoooo<<$w5$$MMNNM888$$5w$ oooooHFzgglAAlzzzllhfa",
"lGKHGDlddzAlggdaz ,<<r2<5wb5$@@@@@@$5bw5  ,66, HDldgSJKJJHGFFDzg",
"lFHGFShalHKFlfypl<<2mPr<$55bn@jjjj@nb55$ 666q, GSgahHLLKKJHFFDzg",
"hSGFDAgpAKKHDzgdd<rssmr<-$$5w@ueeu@w5$$8 6X66: GSgdlHKKJHHGGFDzf",
"dhzADAfpSHHGFDzhp<2rss2<&-9$$@ueeu@$$-98 XX66X GDgdlHJHHGGGGFDla",
"ppdhzhayzSSAAAzldy<2rr<==&$5b@@@@@@9-&88=,,6: FFDgdlFGFGGGGFFShy",
"hfayyytyggfaaddytyh<<2m<#$bw55$$$&&&&&98M%   SAzAgdhSSSSDDFGDzft",
"DzgpaffdppppadfdyahS<m<#$bw5$$%zz%=##&-88M&fgfaaayydfdflSDFGSgdg",
"GShdlAAhpdlAAzlhdpfg<mr7$r<$=%%fd%%=##&98M&adaaapppapttdlAAAhagD",
"FAgdSHGzdzJLLHSldaap<s<7<P<=%%tttt%%=#&989&llzAAzlhgfdpyfggdtdAJ",
"DShdlDSgdSKLKGAlgllfp<ssP<=#=%hfpd%=#&-8M&%JKLKKHGFSzgapapttthDH",
"DShydlldfDKJHFAlfASgp%<<<##==%Slal%==&&&&%%LLLKJHHGDShflzlfytfzD",
"SlfpdfayhGJHGFSldllft :%%%==%%Dlpl%%==%%%: LLJHGGGFDDhgzDAgypafh",
"hayflfttlGJGGFSlpadpp ,666%%%%zgth%%%%666, HHGGGGFFFFlfhzgppgfaa",
"atygzldplFHGFDShttdl :66666, fattdl ,66666: FFDDDDFFGlaaatazFSlh",
"hfpafdpyhAFFDFShygDJ 666666, ffddff ,666666 AAAASSSDFlatyfzHJGDS",
"AhayffapfhzASSzgdSLL ,6q:qq DSAAAzfa qq:q6, ggggghhllfpygSHKHGGG",
"ShafASlddadhllfagHLKJ      HLLKJJFhph      dpttttypppttfFKKHGGGF",
"AgahHHAfdappytttlGJHGGFSlpfFKKKJHDhyppyttyflgaaghlzzlfahJKHGGGFD",
"haplHHAfdhzhddddhSGGGFDAftazHJHHGSldhhfyffggdhAGHHHGDlfhGGFDDDSA",
"ataAHHAggAGAglzhfhADDDSzyydgAFGGGDlgAAhfzlfdgSJLKKJHGzfdllllhhgg",
"ttdAFDzghSGzflAldaglzzlftdgdgzDFGDlfzlglFzfdAGJHHGGFDlatpppyyttt",
"gdflzlfpallfydfdppppypyttpayyflADShpfdhSGzfflzzAAAzzhdttyafggggg",
"AlgddpyypdayyglzzzzlllhgfaaddppflhdtpfzFDldpdffgfggfaytalASDDSAA",
"FAgyafhhhfptdAHHHHHGGGFAzffhgdyyayttyglzlgpyglzzzllhfyygDHHHGFFF",
"FAfphSGGDzgygGLKKJJHHHHFAgglggfpttttpffdapydSJKJJJHFzaplGHGFDDDD"
};
