/* XPM */
static char *f9a3ee83b9714a7dabe3a4f16abea4b1bUeKQxbXuDBCcsV7[] = {
/* columns rows colors chars-per-pixel */
"64 64 164 2 ",
"   c #565656",
".  c #4E4E4E",
"X  c gray29",
"o  c gray32",
"O  c #7C7C7C",
"+  c gray63",
"@  c #AFAFAF",
"#  c #9A9A9A",
"$  c #8B8B8B",
"%  c #6D6D6D",
"&  c #5B5B5B",
"*  c #848484",
"=  c #959595",
"-  c #606060",
";  c #909090",
":  c gray40",
">  c #747474",
",  c gray72",
"<  c gray66",
"1  c #150815",
"2  c #150715",
"3  c #140714",
"4  c #7E0039",
"5  c #170917",
"6  c #140614",
"7  c #5F002C",
"8  c #89003D",
"9  c #A30061",
"0  c #AE0074",
"q  c #1B0D1B",
"w  c #0F000F",
"e  c #86003C",
"r  c #A30062",
"t  c #B10077",
"y  c #B20079",
"u  c #60002C",
"i  c #1C0E1C",
"p  c #A50065",
"a  c #6A0030",
"s  c #8B0040",
"d  c #A60067",
"f  c #3F001D",
"g  c #64002E",
"h  c #8C0042",
"j  c #3C001C",
"k  c #180012",
"l  c #120010",
"z  c #140012",
"x  c #510005",
"c  c #A00061",
"v  c #AF0075",
"b  c #39001B",
"n  c #110011",
"m  c #F30000",
"M  c #B10078",
"N  c #620004",
"B  c #81003A",
"V  c #61002D",
"C  c #3E001A",
"Z  c #AA0073",
"A  c #1A0016",
"S  c #6C0034",
"D  c #9E9D9E",
"F  c #170012",
"G  c #AD0074",
"H  c #8C0041",
"J  c #150011",
"K  c #8C8B8C",
"L  c #190016",
"P  c #A80072",
"I  c #160816",
"U  c #62002D",
"Y  c #140011",
"T  c #130513",
"R  c #A80073",
"E  c #67002F",
"W  c #A90073",
"Q  c #160012",
"!  c #40001E",
"~  c #82003A",
"^  c #6B0033",
"/  c #AB0074",
"(  c #690030",
")  c #3A001B",
"_  c #716E6F",
"`  c #160011",
"'  c #180015",
"]  c #929292",
"[  c #87003C",
"{  c #7E7D7E",
"}  c #83003B",
"|  c #B00076",
" . c #A9A6A7",
".. c #65002E",
"X. c #110010",
"o. c #63002D",
"O. c #130011",
"+. c #420021",
"@. c #170014",
"#. c #170817",
"$. c #AA0074",
"%. c #AC0075",
"&. c #63002E",
"*. c #AD0075",
"=. c #3E001D",
"-. c #6F6F6F",
";. c #858485",
":. c #84003B",
">. c #AF0076",
",. c #410020",
"<. c gray54",
"1. c #130010",
"2. c #626262",
"3. c #6A0032",
"4. c #949394",
"5. c #5D5C5D",
"6. c #4F4E4F",
"7. c gray28",
"8. c #160014",
"9. c #160013",
"0. c #9B9B9B",
"q. c #120412",
"w. c #88003C",
"e. c #120312",
"r. c gray31",
"t. c #585758",
"y. c #959495",
"u. c #150013",
"i. c #B00077",
"p. c #706F70",
"a. c #868686",
"s. c #110311",
"d. c #88003D",
"f. c #AE0076",
"g. c #3D001D",
"h. c #AD0076",
"j. c #85003C",
"k. c #110211",
"l. c #690031",
"z. c gray64",
"x. c #979697",
"c. c #919091",
"v. c gray55",
"b. c gray59",
"n. c gray57",
"m. c #130413",
"M. c #5E5D5E",
"N. c gray37",
"B. c #8A003E",
"V. c #646464",
"C. c #100210",
"Z. c gray33",
"A. c #515051",
"S. c #68002F",
"D. c #A6A5A6",
"F. c #100010",
"G. c gray51",
"H. c #7B7B7B",
"J. c #3D001C",
"K. c #100110",
"L. c #66002F",
"P. c #10000F",
"I. c #8B8A8B",
"U. c #AEAEAE",
/* pixels */
"  . X o O + @ + # $ % X & * # # # = = = = = = $ - X . % = @ @ # * * $ ; = = ; O : & o   % $ # = = = $ > o X o - % % : & & & & & ",
". X X . : $ + # = $ % X o > ; = = = = = = ; $ >   & > = @ , @ < + # + + + # # ; * > - o - O ; = ; * % & o : > % -   . X X X . . ",
": & . X   O ; ; $ O - X o : O * * $ $ $ * O % &   > + , , @ @ @ < < < < + + # # # $ > -   : O * > -   & > = # * & X X X . & - : ",
"$ > & . o > ; ; * : o   : : - : % > > > % - o X - $ @ , @ < + + # # # # + + + + = = $ > - & - : o X & * @ , < $ & X o - > $ = = ",
"= $ % . o % $ ; O     O $ * : . X X X X . o o .   O + @ + # # # # # # # # + + + # = ; $ O - . X . : ; @ @ < # * & X : ; < @ < # ",
"= ; * : o : * ; O & & O ; $ % X o   & - % O O :   % ; + # # # # # # # # # # # # ; ; ; ; $ : . o > = < @ < + = O o o O @ , @ < # ",
"; ; $ O o - * = O -   : % % & . % O $ ; = # = * - - > ; = = = = # = = # = = = = = ; ; ; * & o % # @ @ < + # = O o & $ , , < # # ",
"$ ; ; O o - O ; O & X X . X X . > # , @ + # # ; > & - O $ ; ; ; ; $ * * * $ $ $ $ $ $ * % . & $ @ @ + # + + # O o & $ @ < + # # ",
"; ; $ O o - O $ : . X   % % : & - $ < + # = ; ; * : o - > O O O O % : & & : % : - & - & X X % # < + # # # + = O o - * < + # # = ",
"= = ; O . & % % o X & * + + ; %   % O * * * $ $ * % o .     1 1 2 2 2 X X o o . X X X X X X : $ # # # # # # = O o & O + # = = = ",
"O O > : X o & o X o > < , , < * -   & - - : % > % & . 3 2 2 4 4 4 4 4 5 5 5 : : : & o X X X   % O * * $ ; ; ; O o   > ; ; $ $ $ ",
"&   o . X X X X X : = , , , < = > - o . X . o . X X 6 7 4 4 8 9 0 9 8 4 4 7 q # = * % o . o & - - - : % > O O % . o : O O > > % ",
"X   - -   . X X   * < , @ < < + ; * O O O > : o X X w e 8 8 r t y t r 8 8 e w < + # * :   > $ $ % & . X . & - o X . o   o . X X ",
": * # ; > - . X   * + < + + + # # ; ; = = $ O - . 6 u 8 8 r t y y y t r 8 8 u i < # ; O - O # # * - X X   O $ O > % % : -   o X ",
"O + , < ; > - . o % ; + # # # # # = = = # = * : . w e 8 8 p y y y y y p 8 8 e w + # ; * - % $ = O & o   - = @ < # = $ * O O % & ",
"O # @ + # $ > - .   > ; = = = # # = ; ; ; ; * : X w a 8 8 s d y y y d s 8 8 a w # = ; * : - > O & o - : - $ @ @ < + + # # = * : ",
"% * # # = = * >   o - O $ $ $ $ $ $ $ $ $ ; * : X w f a 8 8 s d y d s 8 8 a f w * $ ; $ %   - % . % * > - * + + # # # = = = O : ",
"  : > * $ * > - . X o - : : - - - : % % : % - o X w g f 8 8 8 s h s 8 8 8 f g w & - : : & . o & X % * % & > = = = = = ; ; $ > & ",
"X . & : % :   . X X X . . . . . X . o     o . X X w f j k k a a 8 8 a k k j f w &   o . X X X . X - : - . - > O O O > > > % - . ",
"& o . . . X X     . .   - - - : - & & - - - o X . w l z x x f c v r f x x z l w * > :   o . X .   & &   . o   & & &     &   o . ",
"* > & . X & > * O -   % # < + # = ; ; ; $ O - X : w b n m m j M y M j m m n b w + # ; * > - o - * ; $ O & o o . X - > * * $ O > ",
"= $ > & o > # + ; % & > @ , , @ < + + # = O - o * w l n N N j y y y j N N n l w + # # = $ : & > < @ + $ & - % %   O + @ < + = * ",
"= = * % & $ @ < = % & > @ , , @ < + + # = O & & # w B V C C Z A S A Z C C V B w # = = = $ % - > @ , + * & > ; $ : * < , , < = $ ",
"; ; * > - $ < + ; %   % + < < # # = = # ; > & - = D F G Z Z H w J w H Z Z G F K = = ; ; $ % - % + < = O & O # ; : > # @ < + = ; ",
"$ ; * % - * # = $ % & : * = # # # = = = $ > & & $ # w L L S 8 P P P 8 S L L w ; ; ; ; * > &   % = # $ > o O # ; : : * < + # = ; ",
"; ; O - o % O > %   X o - % * # # = = = ; > & o I 5 B U w Y 8 L H L 8 Y w U B 2 2 > % -   & > $ = = * % . > = ; % & > = # = ; ; ",
"* > - o . & : - - o . o o   % ; ; ; ; ; ; * 6 T w R 8 E w w 8 w 8 w 8 w w E 8 R w 6 T X   > ; # = = * : X % * O : o & O * $ $ ; ",
":   . & : : : % > > % % -   - O O O * * $ O w W W s 8 Y U w Q b ! w Q w U Y ! s ~ W w   > ; = ; ; ; O - X & % :   . . & : % O * ",
"X   O + @ < + + + + # ; O - o   . . o & & o w ^ ^ Q ! w Y ~ W / / W W ~ Y w l 8 ( ^ w - : > O O O O % o X . o . o & - & o . . o ",
". > + , , @ < + + + # = * - . . . . o & &   ) E Y w _ w U ` ' s y s ' ` U w ] ! Y E w &   & - - - &   o   & & o % $ = * > % - o ",
"  * @ , @ + + # # # # = * - . - O O * * O > j [ ) { % w Y U } | y | } U Y w =  .) [ w   : > O > % : : % > > : & * @ , < = $ > - ",
"  O < @ + # # + + # = = * & o O @ , , @ < I ..( X.- & w o.O.J +.+.@.J O.o.w $ + X.( w T $ < @ < + $ $ ; = $ % - = , , < # = O : ",
"  O + < # = # + # = ; ; * &   O , , , #.I ) E O.w o . w O.} $.%.%.$.$.} O.w $ # w O.o.w 2 #.@ < + = ; = # $ % - = < < # = = O : ",
"o : * # # = = = = = = ; O & o O < , #.} &.*.=.w -.  . w &.J @.s y s @.J &.w $ ; ;.w =.$.&.} I # # = ; = = $ % - ; + # = = ; O - ",
".   : > * $ $ $ $ * * O : . . > + I :.( >.,.X.<.> & o w 1.&.:.| y | :.&.1.w > > % 2.X.3.=.| w O O O O O O > - & * ; = = = $ % o ",
"  & & & : % > > % % -   X X o % + w | =.3.X.4.$ >   . 5.w 1.Y ,.,.3.Y 1.w 6.  . X X 7.1.*.8.w &     & & & o X . % > O * * %   X ",
"% $ $ % o . . X X X X X : > % : = w 9.*.1.0.# $ %   . q.&.w w e *.w.w w &.e.& o X o   r.9.w t.&   o o o   . X X . o   &   . X X ",
"O + < * : & o X X X X o O * > - $ y.w u.0.# = $ % - & w l g :.i.y i.:.g l w % & - > > - p.a.; $ O % - - - - & o o   & &   . X X ",
"O + , # * > : o .   - : O O % & * # = = # # = $ % : - w :.E f 3.3.3.f E :.w : - O = * % $ @ , + = O : : > * * > O O O > > % -   ",
"> # @ + # ; > & & O * > : : &   O ; = = = = = $ > - e.w 8 E j E E E j E 8 w . & $ = O % = , , + ; > & : $ < @ < < + # = = ; O : ",
"> = + # = $ %   > + @ = > - . o > O O O O * * * > s.w g O.d.f.g.g.g.f.d.O.g e.& O O : - # @ @ # $ :   % + , , @ @ < + = = ; O : ",
"% $ # = ; * : o * @ @ + ; O : & & &         &   o w h.d.w 1.z [ [ [ z 1.w d.j.s.-   o : + @ < # $ : & > + @ @ < + + # # = ; O - ",
"& % O * ; * - o $ + + # = ; O % o X X X X X X X k.j.l.1.w z.w 1.1.1.w x.c.1.1.g k.X   O < < + # ; : & > + < + + # # # # = ; >   ",
"o o & % O %   . O $ $ * * * O > & .   : % : : s...l d.w v.# b.b.n.n.b.# # v.w d.h.k.: $ + + = = ; : & > = # = # # # # = = $ % . ",
"% -   . . . X . : : -     & & . X . % = # = m.f.d.w l M.* ; = ; ; ; ; = # = w l y w : O $ $ * O * : & % $ $ $ $ ; ; = # ; O - X ",
"; O : o   - - & o o o o   & - & .   % $ $ $ w y l w N.  % O O O O O O O O * w w B.f.k.- : -       . . & - & - > $ ; = # $ : & : ",
"# $ % & > * * % o & > * * O > % & o - : : : V.O...w C.X   & - - & & & & & & Z.w 8 y w   &       o o o   o X X & > * * * %   : ; ",
"= * : & $ + # O & O < , , + $ > &     o . . . A.X...w o o . X X X X X X X X X w S.B.w > > O * * O > % : - & o . - : : & X & * < ",
"; $ % & > ; $ : & $ @ , @ # * > : > > - o : * ; w E ..s.* O % - o & % > > > % w E 8 w < @ , @ @ + # = $ O :   o   o X X X % ; + ",
"; $ % . & > > & - ; @ < + = * > - * $ : o % ; < D.F.E w # = $ >   > = < # ; $ G.F.S.w , , , @ < + + # ; $ % - > O > - . X - O ; ",
"$ > - o & -   . % # < + # = $ > & > > - X - O * = w d.w # # ; > o > < , + # # ; w E w , , < + # # # = ; ; % : O ; * : . o   - % ",
"%   . - > - X X > # < # # = $ > o   & o o       : H.X.[ C.$ O : X % ; # = = # ; w E w + + # # # # = = = = > - % O : o o : -     ",
"  X . : O > & o > = + # = ; $ % X X & > O O % &   & w J.w -   X X & > * * = # ; w j w ; = = ; ; ; ; = = # >       X   O = $ > % ",
"% - o   - & o . % * = = ; = $ % . : ; < < + = O : K.w d.L.K.- & & - - : O = # K.L.d.w K.* * * * $ $ $ ; = >   X . - O + < # ; $ ",
"* %   . - -   o - % O * $ $ O : & $ , , , @ + = K.L.d.8 P.<.* * * O -   > $ ; H.P.8 d.L.K.: : : : % % > > - o . : $ + @ + # # # ",
"$ %   - * $ > & &   & % > > -   : + , @ < + # K.M w y E w , @ < < = % o % > > - w E y w M w X X X . o o o X X - = @ @ + # # # = ",
"* :   % + + * - &   o o . X X X > # < + # # = I.> o - y.U.@ @ < + ; % . o o . X X . - > :     : % > O O > -   % < @ + # # # = ; ",
"%   o > + + * - & % O % & & & & % $ # # # = ; * - X   O + < + + # $ > & % % - . - - : : & % * # + + + # ; > - % # # = ; ; ; $ * ",
"  X   * + + * : : * # * : > O % - % * ; ; ; $ O . . & : * = # # # ; > : * * % - O > - & : $ < , @ @ < + # O - & > > > > % % : : ",
"X X & * = ; O : % $ # O - > * > &   : > O O > - X & : & : O ; = # ; > - O > : > = O - & * # < + + # # = ; >   X o o o . . X X X ",
": & - > O > - o   > > - . & - & o o o o . o . X X o   . . - > * ; $ % o - & % $ # O - - > O O * * * O O % & X X .   - : : : : : ",
"* > : & & o . . o &   . . : > O O O O > > > % : -     & & o o - > % & X o - O = ; > & o & - - : - : : -   . X   > * $ ; ; $ * * ",
"= * : .   - % % % - o X & * + + + + + # # # = * O - - % : & . .   . X X . : > O > : o . : > O O O > > % - . . : ; + + + # = = = ",
"= * - o % $ # # ; O : . : # , @ @ < < + + + + = * : : > : : - o X X X X o - - &   o . & $ < @ < < < + = O   o > # + # = ; ; ; ; "
};
